<mxfile host="Electron" agent="Mozilla/5.0 (Windows NT 10.0; Win64; x64) AppleWebKit/537.36 (KHTML, like Gecko) draw.io/24.7.5 Chrome/126.0.6478.183 Electron/31.3.0 Safari/537.36" version="24.7.5" pages="2">
  <diagram name="Page-1" id="9mrWPhhgZnA2WpZED4w5">
    <mxGraphModel dx="2087" dy="586" grid="1" gridSize="10" guides="1" tooltips="1" connect="1" arrows="1" fold="1" page="1" pageScale="1" pageWidth="1100" pageHeight="850" math="0" shadow="0">
      <root>
        <mxCell id="0" />
        <mxCell id="1" parent="0" />
        <mxCell id="ZoJ969MxdWa3RZIquQ7d-5" value="CONFIG" style="swimlane;whiteSpace=wrap;html=1;" parent="1" vertex="1">
          <mxGeometry x="-390" y="20" width="1125" height="740" as="geometry" />
        </mxCell>
        <mxCell id="ZoJ969MxdWa3RZIquQ7d-6" value="SERVER" style="swimlane;fontStyle=0;childLayout=stackLayout;horizontal=1;startSize=30;horizontalStack=0;resizeParent=1;resizeParentMax=0;resizeLast=0;collapsible=1;marginBottom=0;whiteSpace=wrap;html=1;" parent="ZoJ969MxdWa3RZIquQ7d-5" vertex="1">
          <mxGeometry x="340" y="80" width="90" height="120" as="geometry" />
        </mxCell>
        <mxCell id="ZoJ969MxdWa3RZIquQ7d-7" value="PORT" style="text;strokeColor=none;fillColor=none;align=left;verticalAlign=middle;spacingLeft=4;spacingRight=4;overflow=hidden;points=[[0,0.5],[1,0.5]];portConstraint=eastwest;rotatable=0;whiteSpace=wrap;html=1;" parent="ZoJ969MxdWa3RZIquQ7d-6" vertex="1">
          <mxGeometry y="30" width="90" height="30" as="geometry" />
        </mxCell>
        <mxCell id="ZoJ969MxdWa3RZIquQ7d-8" value="ADDRESS" style="text;strokeColor=none;fillColor=none;align=left;verticalAlign=middle;spacingLeft=4;spacingRight=4;overflow=hidden;points=[[0,0.5],[1,0.5]];portConstraint=eastwest;rotatable=0;whiteSpace=wrap;html=1;" parent="ZoJ969MxdWa3RZIquQ7d-6" vertex="1">
          <mxGeometry y="60" width="90" height="30" as="geometry" />
        </mxCell>
        <mxCell id="ZoJ969MxdWa3RZIquQ7d-102" value="BASEPATH" style="text;strokeColor=none;fillColor=none;align=left;verticalAlign=middle;spacingLeft=4;spacingRight=4;overflow=hidden;points=[[0,0.5],[1,0.5]];portConstraint=eastwest;rotatable=0;whiteSpace=wrap;html=1;" parent="ZoJ969MxdWa3RZIquQ7d-6" vertex="1">
          <mxGeometry y="90" width="90" height="30" as="geometry" />
        </mxCell>
        <mxCell id="ZoJ969MxdWa3RZIquQ7d-10" value="PROGRAM" style="swimlane;fontStyle=0;childLayout=stackLayout;horizontal=1;startSize=30;horizontalStack=0;resizeParent=1;resizeParentMax=0;resizeLast=0;collapsible=1;marginBottom=0;whiteSpace=wrap;html=1;" parent="ZoJ969MxdWa3RZIquQ7d-5" vertex="1">
          <mxGeometry x="160" y="80" width="90" height="150" as="geometry" />
        </mxCell>
        <mxCell id="ZoJ969MxdWa3RZIquQ7d-11" value="NAME" style="text;strokeColor=none;fillColor=none;align=left;verticalAlign=middle;spacingLeft=4;spacingRight=4;overflow=hidden;points=[[0,0.5],[1,0.5]];portConstraint=eastwest;rotatable=0;whiteSpace=wrap;html=1;" parent="ZoJ969MxdWa3RZIquQ7d-10" vertex="1">
          <mxGeometry y="30" width="90" height="30" as="geometry" />
        </mxCell>
        <mxCell id="ZoJ969MxdWa3RZIquQ7d-95" value="VERSION1" style="text;strokeColor=none;fillColor=none;align=left;verticalAlign=middle;spacingLeft=4;spacingRight=4;overflow=hidden;points=[[0,0.5],[1,0.5]];portConstraint=eastwest;rotatable=0;whiteSpace=wrap;html=1;" parent="ZoJ969MxdWa3RZIquQ7d-10" vertex="1">
          <mxGeometry y="60" width="90" height="30" as="geometry" />
        </mxCell>
        <mxCell id="ZoJ969MxdWa3RZIquQ7d-96" value="VERSION2" style="text;strokeColor=none;fillColor=none;align=left;verticalAlign=middle;spacingLeft=4;spacingRight=4;overflow=hidden;points=[[0,0.5],[1,0.5]];portConstraint=eastwest;rotatable=0;whiteSpace=wrap;html=1;" parent="ZoJ969MxdWa3RZIquQ7d-10" vertex="1">
          <mxGeometry y="90" width="90" height="30" as="geometry" />
        </mxCell>
        <mxCell id="ZoJ969MxdWa3RZIquQ7d-97" value="VERSION3" style="text;strokeColor=none;fillColor=none;align=left;verticalAlign=middle;spacingLeft=4;spacingRight=4;overflow=hidden;points=[[0,0.5],[1,0.5]];portConstraint=eastwest;rotatable=0;whiteSpace=wrap;html=1;" parent="ZoJ969MxdWa3RZIquQ7d-10" vertex="1">
          <mxGeometry y="120" width="90" height="30" as="geometry" />
        </mxCell>
        <mxCell id="ZoJ969MxdWa3RZIquQ7d-14" value="STEER" style="swimlane;fontStyle=0;childLayout=stackLayout;horizontal=1;startSize=30;horizontalStack=0;resizeParent=1;resizeParentMax=0;resizeLast=0;collapsible=1;marginBottom=0;whiteSpace=wrap;html=1;" parent="ZoJ969MxdWa3RZIquQ7d-5" vertex="1">
          <mxGeometry x="430" y="80" width="160" height="630" as="geometry" />
        </mxCell>
        <mxCell id="ZoJ969MxdWa3RZIquQ7d-15" value="Kp" style="text;strokeColor=none;fillColor=none;align=left;verticalAlign=middle;spacingLeft=4;spacingRight=4;overflow=hidden;points=[[0,0.5],[1,0.5]];portConstraint=eastwest;rotatable=0;whiteSpace=wrap;html=1;" parent="ZoJ969MxdWa3RZIquQ7d-14" vertex="1">
          <mxGeometry y="30" width="160" height="30" as="geometry" />
        </mxCell>
        <mxCell id="ZoJ969MxdWa3RZIquQ7d-16" value="lowPWM" style="text;strokeColor=none;fillColor=none;align=left;verticalAlign=middle;spacingLeft=4;spacingRight=4;overflow=hidden;points=[[0,0.5],[1,0.5]];portConstraint=eastwest;rotatable=0;whiteSpace=wrap;html=1;" parent="ZoJ969MxdWa3RZIquQ7d-14" vertex="1">
          <mxGeometry y="60" width="160" height="30" as="geometry" />
        </mxCell>
        <mxCell id="ZoJ969MxdWa3RZIquQ7d-17" value="wasOffset" style="text;strokeColor=none;fillColor=none;align=left;verticalAlign=middle;spacingLeft=4;spacingRight=4;overflow=hidden;points=[[0,0.5],[1,0.5]];portConstraint=eastwest;rotatable=0;whiteSpace=wrap;html=1;" parent="ZoJ969MxdWa3RZIquQ7d-14" vertex="1">
          <mxGeometry y="90" width="160" height="30" as="geometry" />
        </mxCell>
        <mxCell id="ZoJ969MxdWa3RZIquQ7d-18" value="minPWM" style="text;strokeColor=none;fillColor=none;align=left;verticalAlign=middle;spacingLeft=4;spacingRight=4;overflow=hidden;points=[[0,0.5],[1,0.5]];portConstraint=eastwest;rotatable=0;whiteSpace=wrap;html=1;" parent="ZoJ969MxdWa3RZIquQ7d-14" vertex="1">
          <mxGeometry y="120" width="160" height="30" as="geometry" />
        </mxCell>
        <mxCell id="ZoJ969MxdWa3RZIquQ7d-19" value="highPWM" style="text;strokeColor=none;fillColor=none;align=left;verticalAlign=middle;spacingLeft=4;spacingRight=4;overflow=hidden;points=[[0,0.5],[1,0.5]];portConstraint=eastwest;rotatable=0;whiteSpace=wrap;html=1;" parent="ZoJ969MxdWa3RZIquQ7d-14" vertex="1">
          <mxGeometry y="150" width="160" height="30" as="geometry" />
        </mxCell>
        <mxCell id="ZoJ969MxdWa3RZIquQ7d-20" value="steerSensorCounts" style="text;strokeColor=none;fillColor=none;align=left;verticalAlign=middle;spacingLeft=4;spacingRight=4;overflow=hidden;points=[[0,0.5],[1,0.5]];portConstraint=eastwest;rotatable=0;whiteSpace=wrap;html=1;" parent="ZoJ969MxdWa3RZIquQ7d-14" vertex="1">
          <mxGeometry y="180" width="160" height="30" as="geometry" />
        </mxCell>
        <mxCell id="ZoJ969MxdWa3RZIquQ7d-21" value="AckermanFix" style="text;strokeColor=none;fillColor=none;align=left;verticalAlign=middle;spacingLeft=4;spacingRight=4;overflow=hidden;points=[[0,0.5],[1,0.5]];portConstraint=eastwest;rotatable=0;whiteSpace=wrap;html=1;" parent="ZoJ969MxdWa3RZIquQ7d-14" vertex="1">
          <mxGeometry y="210" width="160" height="30" as="geometry" />
        </mxCell>
        <mxCell id="ZoJ969MxdWa3RZIquQ7d-117" value="InvertWAS" style="text;strokeColor=none;fillColor=none;align=left;verticalAlign=middle;spacingLeft=4;spacingRight=4;overflow=hidden;points=[[0,0.5],[1,0.5]];portConstraint=eastwest;rotatable=0;whiteSpace=wrap;html=1;" parent="ZoJ969MxdWa3RZIquQ7d-14" vertex="1">
          <mxGeometry y="240" width="160" height="30" as="geometry" />
        </mxCell>
        <mxCell id="ZoJ969MxdWa3RZIquQ7d-129" value="IsUseY_Axis" style="text;strokeColor=none;fillColor=none;align=left;verticalAlign=middle;spacingLeft=4;spacingRight=4;overflow=hidden;points=[[0,0.5],[1,0.5]];portConstraint=eastwest;rotatable=0;whiteSpace=wrap;html=1;" parent="ZoJ969MxdWa3RZIquQ7d-14" vertex="1">
          <mxGeometry y="270" width="160" height="30" as="geometry" />
        </mxCell>
        <mxCell id="ZoJ969MxdWa3RZIquQ7d-128" value="IsDanfoss" style="text;strokeColor=none;fillColor=none;align=left;verticalAlign=middle;spacingLeft=4;spacingRight=4;overflow=hidden;points=[[0,0.5],[1,0.5]];portConstraint=eastwest;rotatable=0;whiteSpace=wrap;html=1;" parent="ZoJ969MxdWa3RZIquQ7d-14" vertex="1">
          <mxGeometry y="300" width="160" height="30" as="geometry" />
        </mxCell>
        <mxCell id="ZoJ969MxdWa3RZIquQ7d-127" value="PulseCountMax" style="text;strokeColor=none;fillColor=none;align=left;verticalAlign=middle;spacingLeft=4;spacingRight=4;overflow=hidden;points=[[0,0.5],[1,0.5]];portConstraint=eastwest;rotatable=0;whiteSpace=wrap;html=1;" parent="ZoJ969MxdWa3RZIquQ7d-14" vertex="1">
          <mxGeometry y="330" width="160" height="30" as="geometry" />
        </mxCell>
        <mxCell id="ZoJ969MxdWa3RZIquQ7d-126" value="CurrentSensor" style="text;strokeColor=none;fillColor=none;align=left;verticalAlign=middle;spacingLeft=4;spacingRight=4;overflow=hidden;points=[[0,0.5],[1,0.5]];portConstraint=eastwest;rotatable=0;whiteSpace=wrap;html=1;" parent="ZoJ969MxdWa3RZIquQ7d-14" vertex="1">
          <mxGeometry y="360" width="160" height="30" as="geometry" />
        </mxCell>
        <mxCell id="ZoJ969MxdWa3RZIquQ7d-125" value="PressureSensor" style="text;strokeColor=none;fillColor=none;align=left;verticalAlign=middle;spacingLeft=4;spacingRight=4;overflow=hidden;points=[[0,0.5],[1,0.5]];portConstraint=eastwest;rotatable=0;whiteSpace=wrap;html=1;" parent="ZoJ969MxdWa3RZIquQ7d-14" vertex="1">
          <mxGeometry y="390" width="160" height="30" as="geometry" />
        </mxCell>
        <mxCell id="ZoJ969MxdWa3RZIquQ7d-124" value="ShaftEncoder" style="text;strokeColor=none;fillColor=none;align=left;verticalAlign=middle;spacingLeft=4;spacingRight=4;overflow=hidden;points=[[0,0.5],[1,0.5]];portConstraint=eastwest;rotatable=0;whiteSpace=wrap;html=1;" parent="ZoJ969MxdWa3RZIquQ7d-14" vertex="1">
          <mxGeometry y="420" width="160" height="30" as="geometry" />
        </mxCell>
        <mxCell id="ZoJ969MxdWa3RZIquQ7d-123" value="SteerButton" style="text;strokeColor=none;fillColor=none;align=left;verticalAlign=middle;spacingLeft=4;spacingRight=4;overflow=hidden;points=[[0,0.5],[1,0.5]];portConstraint=eastwest;rotatable=0;whiteSpace=wrap;html=1;" parent="ZoJ969MxdWa3RZIquQ7d-14" vertex="1">
          <mxGeometry y="450" width="160" height="30" as="geometry" />
        </mxCell>
        <mxCell id="ZoJ969MxdWa3RZIquQ7d-122" value="SteerSwitch" style="text;strokeColor=none;fillColor=none;align=left;verticalAlign=middle;spacingLeft=4;spacingRight=4;overflow=hidden;points=[[0,0.5],[1,0.5]];portConstraint=eastwest;rotatable=0;whiteSpace=wrap;html=1;" parent="ZoJ969MxdWa3RZIquQ7d-14" vertex="1">
          <mxGeometry y="480" width="160" height="30" as="geometry" />
        </mxCell>
        <mxCell id="ZoJ969MxdWa3RZIquQ7d-121" value="CytronDriver" style="text;strokeColor=none;fillColor=none;align=left;verticalAlign=middle;spacingLeft=4;spacingRight=4;overflow=hidden;points=[[0,0.5],[1,0.5]];portConstraint=eastwest;rotatable=0;whiteSpace=wrap;html=1;" parent="ZoJ969MxdWa3RZIquQ7d-14" vertex="1">
          <mxGeometry y="510" width="160" height="30" as="geometry" />
        </mxCell>
        <mxCell id="ZoJ969MxdWa3RZIquQ7d-120" value="SingleInputWAS" style="text;strokeColor=none;fillColor=none;align=left;verticalAlign=middle;spacingLeft=4;spacingRight=4;overflow=hidden;points=[[0,0.5],[1,0.5]];portConstraint=eastwest;rotatable=0;whiteSpace=wrap;html=1;" parent="ZoJ969MxdWa3RZIquQ7d-14" vertex="1">
          <mxGeometry y="540" width="160" height="30" as="geometry" />
        </mxCell>
        <mxCell id="ZoJ969MxdWa3RZIquQ7d-119" value="MotorDriveDirection" style="text;strokeColor=none;fillColor=none;align=left;verticalAlign=middle;spacingLeft=4;spacingRight=4;overflow=hidden;points=[[0,0.5],[1,0.5]];portConstraint=eastwest;rotatable=0;whiteSpace=wrap;html=1;" parent="ZoJ969MxdWa3RZIquQ7d-14" vertex="1">
          <mxGeometry y="570" width="160" height="30" as="geometry" />
        </mxCell>
        <mxCell id="ZoJ969MxdWa3RZIquQ7d-118" value="IsRelayActiveHigh" style="text;strokeColor=none;fillColor=none;align=left;verticalAlign=middle;spacingLeft=4;spacingRight=4;overflow=hidden;points=[[0,0.5],[1,0.5]];portConstraint=eastwest;rotatable=0;whiteSpace=wrap;html=1;" parent="ZoJ969MxdWa3RZIquQ7d-14" vertex="1">
          <mxGeometry y="600" width="160" height="30" as="geometry" />
        </mxCell>
        <mxCell id="ZoJ969MxdWa3RZIquQ7d-47" value="WIFI" style="swimlane;fontStyle=0;childLayout=stackLayout;horizontal=1;startSize=30;horizontalStack=0;resizeParent=1;resizeParentMax=0;resizeLast=0;collapsible=1;marginBottom=0;whiteSpace=wrap;html=1;" parent="ZoJ969MxdWa3RZIquQ7d-5" vertex="1">
          <mxGeometry x="250" y="80" width="90" height="240" as="geometry" />
        </mxCell>
        <mxCell id="ZoJ969MxdWa3RZIquQ7d-48" value="SSID" style="text;strokeColor=none;fillColor=none;align=left;verticalAlign=middle;spacingLeft=4;spacingRight=4;overflow=hidden;points=[[0,0.5],[1,0.5]];portConstraint=eastwest;rotatable=0;whiteSpace=wrap;html=1;" parent="ZoJ969MxdWa3RZIquQ7d-47" vertex="1">
          <mxGeometry y="30" width="90" height="30" as="geometry" />
        </mxCell>
        <mxCell id="ZoJ969MxdWa3RZIquQ7d-49" value="PASSWORD" style="text;strokeColor=none;fillColor=none;align=left;verticalAlign=middle;spacingLeft=4;spacingRight=4;overflow=hidden;points=[[0,0.5],[1,0.5]];portConstraint=eastwest;rotatable=0;whiteSpace=wrap;html=1;" parent="ZoJ969MxdWa3RZIquQ7d-47" vertex="1">
          <mxGeometry y="60" width="90" height="30" as="geometry" />
        </mxCell>
        <mxCell id="ZoJ969MxdWa3RZIquQ7d-93" value="ADDR1" style="text;strokeColor=none;fillColor=none;align=left;verticalAlign=middle;spacingLeft=4;spacingRight=4;overflow=hidden;points=[[0,0.5],[1,0.5]];portConstraint=eastwest;rotatable=0;whiteSpace=wrap;html=1;" parent="ZoJ969MxdWa3RZIquQ7d-47" vertex="1">
          <mxGeometry y="90" width="90" height="30" as="geometry" />
        </mxCell>
        <mxCell id="ZoJ969MxdWa3RZIquQ7d-98" value="ADDR2" style="text;strokeColor=none;fillColor=none;align=left;verticalAlign=middle;spacingLeft=4;spacingRight=4;overflow=hidden;points=[[0,0.5],[1,0.5]];portConstraint=eastwest;rotatable=0;whiteSpace=wrap;html=1;" parent="ZoJ969MxdWa3RZIquQ7d-47" vertex="1">
          <mxGeometry y="120" width="90" height="30" as="geometry" />
        </mxCell>
        <mxCell id="ZoJ969MxdWa3RZIquQ7d-99" value="ADDR3" style="text;strokeColor=none;fillColor=none;align=left;verticalAlign=middle;spacingLeft=4;spacingRight=4;overflow=hidden;points=[[0,0.5],[1,0.5]];portConstraint=eastwest;rotatable=0;whiteSpace=wrap;html=1;" parent="ZoJ969MxdWa3RZIquQ7d-47" vertex="1">
          <mxGeometry y="150" width="90" height="30" as="geometry" />
        </mxCell>
        <mxCell id="ZoJ969MxdWa3RZIquQ7d-100" value="ADDR4" style="text;strokeColor=none;fillColor=none;align=left;verticalAlign=middle;spacingLeft=4;spacingRight=4;overflow=hidden;points=[[0,0.5],[1,0.5]];portConstraint=eastwest;rotatable=0;whiteSpace=wrap;html=1;" parent="ZoJ969MxdWa3RZIquQ7d-47" vertex="1">
          <mxGeometry y="180" width="90" height="30" as="geometry" />
        </mxCell>
        <mxCell id="ZoJ969MxdWa3RZIquQ7d-101" value="STATE" style="text;strokeColor=none;fillColor=none;align=left;verticalAlign=middle;spacingLeft=4;spacingRight=4;overflow=hidden;points=[[0,0.5],[1,0.5]];portConstraint=eastwest;rotatable=0;whiteSpace=wrap;html=1;" parent="ZoJ969MxdWa3RZIquQ7d-47" vertex="1">
          <mxGeometry y="210" width="90" height="30" as="geometry" />
        </mxCell>
        <mxCell id="ZoJ969MxdWa3RZIquQ7d-103" value="GPS" style="swimlane;fontStyle=0;childLayout=stackLayout;horizontal=1;startSize=30;horizontalStack=0;resizeParent=1;resizeParentMax=0;resizeLast=0;collapsible=1;marginBottom=0;whiteSpace=wrap;html=1;" parent="ZoJ969MxdWa3RZIquQ7d-5" vertex="1">
          <mxGeometry x="590" y="80" width="110" height="60" as="geometry" />
        </mxCell>
        <mxCell id="ZoJ969MxdWa3RZIquQ7d-109" value="BAUDRATE" style="text;strokeColor=none;fillColor=none;align=left;verticalAlign=middle;spacingLeft=4;spacingRight=4;overflow=hidden;points=[[0,0.5],[1,0.5]];portConstraint=eastwest;rotatable=0;whiteSpace=wrap;html=1;" parent="ZoJ969MxdWa3RZIquQ7d-103" vertex="1">
          <mxGeometry y="30" width="110" height="30" as="geometry" />
        </mxCell>
        <mxCell id="ZoJ969MxdWa3RZIquQ7d-130" value="UDP" style="swimlane;fontStyle=0;childLayout=stackLayout;horizontal=1;startSize=30;horizontalStack=0;resizeParent=1;resizeParentMax=0;resizeLast=0;collapsible=1;marginBottom=0;whiteSpace=wrap;html=1;fillColor=#dae8fc;strokeColor=#6c8ebf;" parent="ZoJ969MxdWa3RZIquQ7d-5" vertex="1">
          <mxGeometry x="700" y="80" width="300" height="243" as="geometry" />
        </mxCell>
        <mxCell id="ZoJ969MxdWa3RZIquQ7d-133" value="" style="shape=table;startSize=0;container=1;collapsible=0;childLayout=tableLayout;fontSize=16;fontFamily=Helvetica;fontColor=default;labelBackgroundColor=default;" parent="ZoJ969MxdWa3RZIquQ7d-130" vertex="1">
          <mxGeometry y="30" width="300" height="213" as="geometry" />
        </mxCell>
        <mxCell id="ZoJ969MxdWa3RZIquQ7d-134" value="" style="shape=tableRow;horizontal=0;startSize=0;swimlaneHead=0;swimlaneBody=0;strokeColor=inherit;top=0;left=0;bottom=0;right=0;collapsible=0;dropTarget=0;fillColor=none;points=[[0,0.5],[1,0.5]];portConstraint=eastwest;fontSize=16;fontFamily=Helvetica;fontColor=default;labelBackgroundColor=default;" parent="ZoJ969MxdWa3RZIquQ7d-133" vertex="1">
          <mxGeometry width="300" height="31" as="geometry" />
        </mxCell>
        <mxCell id="ZoJ969MxdWa3RZIquQ7d-135" value="NAME" style="shape=partialRectangle;html=1;whiteSpace=wrap;connectable=0;strokeColor=inherit;overflow=hidden;fillColor=none;top=0;left=0;bottom=0;right=0;pointerEvents=1;fontSize=12;fontFamily=Helvetica;fontColor=default;labelBackgroundColor=default;fontStyle=1" parent="ZoJ969MxdWa3RZIquQ7d-134" vertex="1">
          <mxGeometry width="170" height="31" as="geometry">
            <mxRectangle width="170" height="31" as="alternateBounds" />
          </mxGeometry>
        </mxCell>
        <mxCell id="ZoJ969MxdWa3RZIquQ7d-136" value="UNIT" style="shape=partialRectangle;html=1;whiteSpace=wrap;connectable=0;strokeColor=inherit;overflow=hidden;fillColor=none;top=0;left=0;bottom=0;right=0;pointerEvents=1;fontSize=12;fontFamily=Helvetica;fontColor=default;labelBackgroundColor=default;fontStyle=1" parent="ZoJ969MxdWa3RZIquQ7d-134" vertex="1">
          <mxGeometry x="170" width="60" height="31" as="geometry">
            <mxRectangle width="60" height="31" as="alternateBounds" />
          </mxGeometry>
        </mxCell>
        <mxCell id="ZoJ969MxdWa3RZIquQ7d-137" value="DEFAULT" style="shape=partialRectangle;html=1;whiteSpace=wrap;connectable=0;strokeColor=inherit;overflow=hidden;fillColor=none;top=0;left=0;bottom=0;right=0;pointerEvents=1;fontSize=12;fontFamily=Helvetica;fontColor=default;labelBackgroundColor=default;fontStyle=1" parent="ZoJ969MxdWa3RZIquQ7d-134" vertex="1">
          <mxGeometry x="230" width="70" height="31" as="geometry">
            <mxRectangle width="70" height="31" as="alternateBounds" />
          </mxGeometry>
        </mxCell>
        <mxCell id="ZoJ969MxdWa3RZIquQ7d-138" value="" style="shape=tableRow;horizontal=0;startSize=0;swimlaneHead=0;swimlaneBody=0;strokeColor=inherit;top=0;left=0;bottom=0;right=0;collapsible=0;dropTarget=0;fillColor=none;points=[[0,0.5],[1,0.5]];portConstraint=eastwest;fontSize=16;fontFamily=Helvetica;fontColor=default;labelBackgroundColor=default;" parent="ZoJ969MxdWa3RZIquQ7d-133" vertex="1">
          <mxGeometry y="31" width="300" height="29" as="geometry" />
        </mxCell>
        <mxCell id="ZoJ969MxdWa3RZIquQ7d-139" value="portMY" style="shape=partialRectangle;html=1;whiteSpace=wrap;connectable=0;strokeColor=inherit;overflow=hidden;fillColor=none;top=0;left=0;bottom=0;right=0;pointerEvents=1;fontSize=12;fontFamily=Helvetica;fontColor=default;labelBackgroundColor=default;" parent="ZoJ969MxdWa3RZIquQ7d-138" vertex="1">
          <mxGeometry width="170" height="29" as="geometry">
            <mxRectangle width="170" height="29" as="alternateBounds" />
          </mxGeometry>
        </mxCell>
        <mxCell id="ZoJ969MxdWa3RZIquQ7d-140" value="uint16" style="shape=partialRectangle;html=1;whiteSpace=wrap;connectable=0;strokeColor=inherit;overflow=hidden;fillColor=none;top=0;left=0;bottom=0;right=0;pointerEvents=1;fontSize=12;fontFamily=Helvetica;fontColor=default;labelBackgroundColor=default;" parent="ZoJ969MxdWa3RZIquQ7d-138" vertex="1">
          <mxGeometry x="170" width="60" height="29" as="geometry">
            <mxRectangle width="60" height="29" as="alternateBounds" />
          </mxGeometry>
        </mxCell>
        <mxCell id="ZoJ969MxdWa3RZIquQ7d-141" value="5120" style="shape=partialRectangle;html=1;whiteSpace=wrap;connectable=0;strokeColor=inherit;overflow=hidden;fillColor=none;top=0;left=0;bottom=0;right=0;pointerEvents=1;fontSize=12;fontFamily=Helvetica;fontColor=default;labelBackgroundColor=default;" parent="ZoJ969MxdWa3RZIquQ7d-138" vertex="1">
          <mxGeometry x="230" width="70" height="29" as="geometry">
            <mxRectangle width="70" height="29" as="alternateBounds" />
          </mxGeometry>
        </mxCell>
        <mxCell id="ZoJ969MxdWa3RZIquQ7d-142" value="" style="shape=tableRow;horizontal=0;startSize=0;swimlaneHead=0;swimlaneBody=0;strokeColor=inherit;top=0;left=0;bottom=0;right=0;collapsible=0;dropTarget=0;fillColor=none;points=[[0,0.5],[1,0.5]];portConstraint=eastwest;fontSize=16;fontFamily=Helvetica;fontColor=default;labelBackgroundColor=default;" parent="ZoJ969MxdWa3RZIquQ7d-133" vertex="1">
          <mxGeometry y="60" width="300" height="30" as="geometry" />
        </mxCell>
        <mxCell id="ZoJ969MxdWa3RZIquQ7d-143" value="AOGtripPort" style="shape=partialRectangle;html=1;whiteSpace=wrap;connectable=0;strokeColor=inherit;overflow=hidden;fillColor=none;top=0;left=0;bottom=0;right=0;pointerEvents=1;fontSize=12;fontFamily=Helvetica;fontColor=default;labelBackgroundColor=default;" parent="ZoJ969MxdWa3RZIquQ7d-142" vertex="1">
          <mxGeometry width="170" height="30" as="geometry">
            <mxRectangle width="170" height="30" as="alternateBounds" />
          </mxGeometry>
        </mxCell>
        <mxCell id="ZoJ969MxdWa3RZIquQ7d-144" value="uint16" style="shape=partialRectangle;html=1;whiteSpace=wrap;connectable=0;strokeColor=inherit;overflow=hidden;fillColor=none;top=0;left=0;bottom=0;right=0;pointerEvents=1;fontSize=12;fontFamily=Helvetica;fontColor=default;labelBackgroundColor=default;" parent="ZoJ969MxdWa3RZIquQ7d-142" vertex="1">
          <mxGeometry x="170" width="60" height="30" as="geometry">
            <mxRectangle width="60" height="30" as="alternateBounds" />
          </mxGeometry>
        </mxCell>
        <mxCell id="ZoJ969MxdWa3RZIquQ7d-145" value="2233" style="shape=partialRectangle;html=1;whiteSpace=wrap;connectable=0;strokeColor=inherit;overflow=hidden;fillColor=none;top=0;left=0;bottom=0;right=0;pointerEvents=1;fontSize=12;fontFamily=Helvetica;fontColor=default;labelBackgroundColor=default;" parent="ZoJ969MxdWa3RZIquQ7d-142" vertex="1">
          <mxGeometry x="230" width="70" height="30" as="geometry">
            <mxRectangle width="70" height="30" as="alternateBounds" />
          </mxGeometry>
        </mxCell>
        <mxCell id="ZoJ969MxdWa3RZIquQ7d-146" value="" style="shape=tableRow;horizontal=0;startSize=0;swimlaneHead=0;swimlaneBody=0;strokeColor=inherit;top=0;left=0;bottom=0;right=0;collapsible=0;dropTarget=0;fillColor=none;points=[[0,0.5],[1,0.5]];portConstraint=eastwest;fontSize=16;fontFamily=Helvetica;fontColor=default;labelBackgroundColor=default;" parent="ZoJ969MxdWa3RZIquQ7d-133" vertex="1">
          <mxGeometry y="90" width="300" height="30" as="geometry" />
        </mxCell>
        <mxCell id="ZoJ969MxdWa3RZIquQ7d-147" value="AOGAutoSteerPort" style="shape=partialRectangle;html=1;whiteSpace=wrap;connectable=0;strokeColor=inherit;overflow=hidden;fillColor=none;top=0;left=0;bottom=0;right=0;pointerEvents=1;fontSize=12;fontFamily=Helvetica;fontColor=default;labelBackgroundColor=default;" parent="ZoJ969MxdWa3RZIquQ7d-146" vertex="1">
          <mxGeometry width="170" height="30" as="geometry">
            <mxRectangle width="170" height="30" as="alternateBounds" />
          </mxGeometry>
        </mxCell>
        <mxCell id="ZoJ969MxdWa3RZIquQ7d-148" value="uint16" style="shape=partialRectangle;html=1;whiteSpace=wrap;connectable=0;strokeColor=inherit;overflow=hidden;fillColor=none;top=0;left=0;bottom=0;right=0;pointerEvents=1;fontSize=12;fontFamily=Helvetica;fontColor=default;labelBackgroundColor=default;" parent="ZoJ969MxdWa3RZIquQ7d-146" vertex="1">
          <mxGeometry x="170" width="60" height="30" as="geometry">
            <mxRectangle width="60" height="30" as="alternateBounds" />
          </mxGeometry>
        </mxCell>
        <mxCell id="ZoJ969MxdWa3RZIquQ7d-149" value="8888" style="shape=partialRectangle;html=1;whiteSpace=wrap;connectable=0;strokeColor=inherit;overflow=hidden;fillColor=none;top=0;left=0;bottom=0;right=0;pointerEvents=1;fontSize=12;fontFamily=Helvetica;fontColor=default;labelBackgroundColor=default;" parent="ZoJ969MxdWa3RZIquQ7d-146" vertex="1">
          <mxGeometry x="230" width="70" height="30" as="geometry">
            <mxRectangle width="70" height="30" as="alternateBounds" />
          </mxGeometry>
        </mxCell>
        <mxCell id="ZoJ969MxdWa3RZIquQ7d-150" value="" style="shape=tableRow;horizontal=0;startSize=0;swimlaneHead=0;swimlaneBody=0;strokeColor=inherit;top=0;left=0;bottom=0;right=0;collapsible=0;dropTarget=0;fillColor=none;points=[[0,0.5],[1,0.5]];portConstraint=eastwest;fontSize=16;fontFamily=Helvetica;fontColor=default;labelBackgroundColor=default;" parent="ZoJ969MxdWa3RZIquQ7d-133" vertex="1">
          <mxGeometry y="120" width="300" height="30" as="geometry" />
        </mxCell>
        <mxCell id="ZoJ969MxdWa3RZIquQ7d-151" value="portDestination" style="shape=partialRectangle;html=1;whiteSpace=wrap;connectable=0;strokeColor=inherit;overflow=hidden;fillColor=none;top=0;left=0;bottom=0;right=0;pointerEvents=1;fontSize=12;fontFamily=Helvetica;fontColor=default;labelBackgroundColor=default;" parent="ZoJ969MxdWa3RZIquQ7d-150" vertex="1">
          <mxGeometry width="170" height="30" as="geometry">
            <mxRectangle width="170" height="30" as="alternateBounds" />
          </mxGeometry>
        </mxCell>
        <mxCell id="ZoJ969MxdWa3RZIquQ7d-152" value="uint16" style="shape=partialRectangle;html=1;whiteSpace=wrap;connectable=0;strokeColor=inherit;overflow=hidden;fillColor=none;top=0;left=0;bottom=0;right=0;pointerEvents=1;fontSize=12;fontFamily=Helvetica;fontColor=default;labelBackgroundColor=default;" parent="ZoJ969MxdWa3RZIquQ7d-150" vertex="1">
          <mxGeometry x="170" width="60" height="30" as="geometry">
            <mxRectangle width="60" height="30" as="alternateBounds" />
          </mxGeometry>
        </mxCell>
        <mxCell id="ZoJ969MxdWa3RZIquQ7d-153" value="9999" style="shape=partialRectangle;html=1;whiteSpace=wrap;connectable=0;strokeColor=inherit;overflow=hidden;fillColor=none;top=0;left=0;bottom=0;right=0;pointerEvents=1;fontSize=12;fontFamily=Helvetica;fontColor=default;labelBackgroundColor=default;" parent="ZoJ969MxdWa3RZIquQ7d-150" vertex="1">
          <mxGeometry x="230" width="70" height="30" as="geometry">
            <mxRectangle width="70" height="30" as="alternateBounds" />
          </mxGeometry>
        </mxCell>
        <mxCell id="ZoJ969MxdWa3RZIquQ7d-154" value="" style="shape=tableRow;horizontal=0;startSize=0;swimlaneHead=0;swimlaneBody=0;strokeColor=inherit;top=0;left=0;bottom=0;right=0;collapsible=0;dropTarget=0;fillColor=none;points=[[0,0.5],[1,0.5]];portConstraint=eastwest;fontSize=16;fontFamily=Helvetica;fontColor=default;labelBackgroundColor=default;" parent="ZoJ969MxdWa3RZIquQ7d-133" vertex="1">
          <mxGeometry y="150" width="300" height="63" as="geometry" />
        </mxCell>
        <mxCell id="ZoJ969MxdWa3RZIquQ7d-155" value="" style="shape=partialRectangle;html=1;whiteSpace=wrap;connectable=0;strokeColor=inherit;overflow=hidden;fillColor=none;top=0;left=0;bottom=0;right=0;pointerEvents=1;fontSize=12;fontFamily=Helvetica;fontColor=default;labelBackgroundColor=default;" parent="ZoJ969MxdWa3RZIquQ7d-154" vertex="1">
          <mxGeometry width="170" height="63" as="geometry">
            <mxRectangle width="170" height="63" as="alternateBounds" />
          </mxGeometry>
        </mxCell>
        <mxCell id="ZoJ969MxdWa3RZIquQ7d-156" value="" style="shape=partialRectangle;html=1;whiteSpace=wrap;connectable=0;strokeColor=inherit;overflow=hidden;fillColor=none;top=0;left=0;bottom=0;right=0;pointerEvents=1;fontSize=12;fontFamily=Helvetica;fontColor=default;labelBackgroundColor=default;" parent="ZoJ969MxdWa3RZIquQ7d-154" vertex="1">
          <mxGeometry x="170" width="60" height="63" as="geometry">
            <mxRectangle width="60" height="63" as="alternateBounds" />
          </mxGeometry>
        </mxCell>
        <mxCell id="ZoJ969MxdWa3RZIquQ7d-157" value="" style="shape=partialRectangle;html=1;whiteSpace=wrap;connectable=0;strokeColor=inherit;overflow=hidden;fillColor=none;top=0;left=0;bottom=0;right=0;pointerEvents=1;fontSize=12;fontFamily=Helvetica;fontColor=default;labelBackgroundColor=default;" parent="ZoJ969MxdWa3RZIquQ7d-154" vertex="1">
          <mxGeometry x="230" width="70" height="63" as="geometry">
            <mxRectangle width="70" height="63" as="alternateBounds" />
          </mxGeometry>
        </mxCell>
        <mxCell id="ZoJ969MxdWa3RZIquQ7d-46" value="" style="shape=image;verticalLabelPosition=bottom;labelBackgroundColor=default;verticalAlign=top;aspect=fixed;imageAspect=0;image=data:image/png,iVBORw0KGgoAAAANSUhEUgAAAsQAAAKQCAIAAAAXKPs1AAAAAXNSR0IArs4c6QAAAARnQU1BAACxjwv8YQUAAAAJcEhZcwAAEnQAABJ0Ad5mH3gAAAASdEVYdFNvZnR3YXJlAEdyZWVuc2hvdF5VCAUAAJLTSURBVHhe7b3dqx1Jmp9b/1vfV4Pouy5o+spXc2MbgQXuktEGX/dYRQvbMxurahfDGAmBujRsuYahPFMbzBTjKUvoUPgMhqanVCMV+GbMwVdzIt6IyHzjM7/XyrX28/Ai1sqMjK9cyt8vI3JnfPBP//RP/9///b8mzAcAAACAqWAmAAAAYBGYCQAAAFgEZgIAAAAWgZkAAACARTTNxNuvP736/Nlr/y3hzfXnnzz5+r3/tiVSjU+uXr7x30fQrHnIUOIwTVDYfutKv65V8bRxbfz05gf/HQAAzpqWmXh/87Suta+fNdR6XVY3E4HD+aGAqOzTr976r3um1TlD3YuZAAC4VTTMhLULNT2wPiOou3wuSIsoyhQHsCI7NRO2S09lNGKJmQAAgFtF3Uy8flm/h/7hqydKFN3IQaqRRxXOHZuJU7lfx0wAAMBIamYitgsJqc+QxMkghE2j9Ea+htApQ0HOkUj0cqs2loWtlm1QOxkdqR5e1UudbdYJfZ6TnUHDTIj38hF5uDAI5DpZYoIBqmZrKTZT97kOKVS3XUd3onWCxG2EWbO+SmlXRGfTRX9OF3Q7AABsS8VMNG89cw3OZzrk0h+UwOTWS3LiPDqNDFInipIUnZdoaWRr6//0U2dTLCJgRVuQZStt6XQ3PTBql/2aKXQB5QOiiJrcCWTSme6rSlBuS4kk5etnqrHtZhrKfe5o/jwspQShIZUTHX2V+qjSZ3U7AAAciLKZsNf9mpDIhT4Tkky3GrePkWwk3sJQOLYlbB06WxEzrY6xdnpK2Wal22y7A6W2o4S8SLFb8jxlS6iY02Dd4aN6w9CS/HYzLRuZCbUxqkNSXHy+FnY7AABsS9FMFDXPI1d5rf0eKwbd9kyZIiKliYSzxij51NnmYhY5GE8h27zmcVbSzNnCVupYyT/ZqDs5ltVJ2OLyVluGmmlo9XnevQmlBNkvR/dG+jNIEi/rdgAA2JaSmbBKU7ALgr3ol32GUutch7wYqAhKs8hMVLPNxawkb3m2omFpnib0gTpNzXJVqJqJpGLaQOjP05Hu9bXtMxnTzFqfW9Y3E9Hvx+1KrMOCbgcAgG3JzYTIT+0WML+j7ekEIJVMkXx1VKQ0881EK9tczEo1L2TbamCC1+kpwjbJTCwfmVBIKX0+I5p5YDOhvYKN6iDEjG4HAIBtycxEUydaAuPV/eWbVKiyu8yoiNlmoplt1gpfN//NU8i22fyMpvEqUDIThUyiLeuYCUOzf3Iy7dcUG6Io5d80E0MZRkztdgAA2JbUTLTswqACWRsht5VRDnLp71QkpAn5yN45ZqKZbVJV2ZvXvNhYsR018Y7+IMKVMuUWuSKZcfUS9zDfTLx+qctK8mk2U5BaVVoXd37OZDPR9gcLux0AALYlMROtG8RMDHLs4SUF8tttGFWIlKZlJqTEcGAIlflQtt3eWDWHss0SZErW7coNSpN69wYzJBF1slRmlplIG5Keu1YzhShBuld1ft8P0cYQvlzJrWYm0o6VUK1e1O0AALAtsZmwklazC1aey0IIsBDnFfK5nuqvEQAAdoQ2E82hZuszZt4fAwwQT/Q4ZCIGMwEAcAJkD2ACHJ58ZMLN+/CUJQDAKYCZgH2QPTPBgxEAAKcCZgIAAAAWgZkAAACARWAmAAAAYBGYiVPluolPBAAAsD2YiVPFOIa//99/XwzMBAAAHBLMxKmCmQAAgJ2AmThVMBMAALATMBOnSmIm/vY//8uf/PRnP/npv/xP/xMzAQAAB2WamXj7l3/6wW9e3Phvh+G7i9/80Z2//NF/W41vHv38l3evv/ffTpDITPzVr52NcF8xEwAAcEjO2Ex8/8XHv/zw5z4y33BWZuK//PpnP/n1X3RfMRMAAHBIztVMWK/w4cfPu0VOf7i+9+iV/yyck5n4H//pn2MmAADgaORmwor3Bz7+9OpdvlFHZyyC5L950e29CAs+3jz/ow8+u+kXHH13c0ftFX68+qzL0xcqxqXb2McYY2Gsw4c/v/eFr3yE7OpHLLrQxiJKc/mN32oJFuTVwy5B5FHU9g9//vBbv9Xz7WW3K0SfuR5HKdc8ATMBAAA7ITETYhqefyefDd9daBPQGpno3IbfKym9LRgwE/JVJfjx6rkuNNiUKTg3EA9FJNRGJpyodz4gGeGQrzZ8gsi1vHt+NzUHvZ8QJxG+iudQpUu24diGE9JgJgAAYCfEZqIwZhAxYCYqjqFtJtK9KXPMRK76GRUzYWU+FnIR/uBLEm8hBqLmWrIDVXFiNUI+4h50PWVvNCJSADMBAAA7oTQyUfcTA2aiH9KIaJqJQa8wz0xY9GxFpvdlMxGNH3h0SjETQzLv0T5DPqdmwudTsA62GtqylOjNxP/8k3/205/927/yTgIzAQAAByZ/ZqLw+ELH+mZiaCxkiZkIiANITUDdTKQqrg3EgJnIn4roTEw+zaEHLfQhPsaYCbERP/nnf/K3wUZgJgAA4PDkZiIgMp/4idMamdCIluv5i2lmYszIRFpENAPiHqHoQ42UjJrUyGFkAgAAdkLdTBjyYQP7xxrpcIUwwUyII+mylYGQ1jMTkqCS83gyM1GR8PIzE92WhpnIdmkzkWerKDmYYXozwTMTAABwVGIz8eaFHgMQ1Y+tgxuuKEh7y0zofJyTiB7LcH9N2h+b/DWHeJGyg6ny7WWs3KLriQnI7IVDTEYv7YlFaJgJN/YQTWT0IxDRKEVGqXqDYCYAAGAnpCMTndhLlGY01JskVIKWmTCIIZCwgxA2cTTg4adUXOS+QT/GMXLKozGt0BGlSZ+OLGw3tKY5/F4Xxo7EBkI/Ddqn8TsN6liJqvMIYCYAAGAnNKc5YCWck4j8wazRCA1mAgAAdgJm4hDIlErhL05XMhOszQEAAMcEM3EI8pEJsRfDcxkNtJmQ9cdZNRQAAI4DZuJAZM9MJAMVk9FmwoT4iZ85S4GZAACAQ4KZOFUSM6EDMwEAAIcEM3GqYCYAAGAnYCZOFeMYGvhEAAAA29ObiX/37/7d73//e7cVAAAAYCSYCQAAAFgEZgIAAAAWgZkAAACARRzQTLhFPVoLhALAON5+/enV589e+28Jb64//+TJ1+/9t1vFD189+fyTes+si+3nKx+HKdEjZ/+Tq5d6gSOA47J/M2FXBRu3uNckNsoW4BC8v3latwuvnx1Y2w6IbXhLRA9qJjxNY7cJmAnYH/uf5miqfrSEabwS6QCzzIRdWFyvWu6W+szXMT8CN5e/+OCjX3xw/8vYq725MBt9PLi6lfeq54i1C5/eqEVnFUNye9rssXWHNxMA++OEzYSslt6vV+4WTx/tJ1YwE6Xlu47Eq8feMWgz8f7LO2bLpe8RcRv4ibPg9ctPrp5+VR7ik1vz67NVNswEwD5ZyUy8u7kTC/nNczWjoccPnn/ntgWsqJsDnRWQeHEjO9SWKIID+PHqsyS3Uf5gKNsmykzIWhvRmIT1Fpff+LXFJZas4zWFd1f3rWmwdkGZieRrl8x/E8QP7WJkBUbTtAstn1HAzvqbrPyweTJBEApSe+PhEDtA4rYnhTazteinDaI8Q/1VAmcddFk6OmPhJzgkSj2gKhPbET8rJDYl35scWM15spmwLe2yddGXq/snOte6Mtk812C3A2zHQcyEJ5d/g3UAVs79dkkTHVizCFnKrA5Nlo1MiGNIvIJbCLThNjbi7fWDDz56bBxY7B7sBMeda1W8H72wKQNumuaXd6+/9xtg/zSly8rJlEcvg2h5jRRB7fSyk+ewRfTPFy2fOx/glLirVTNbsQVdJZ3ydXrZSazfInVQLRoemQh2RFOqXlyfaomvn6nS4wMDM8yE7smkQ6S2fW5J/wSKJzp0u++fuNsBtmUfZkKllJEDPzgh1FVfCvWJ3ec08wZLzITV4FyAs7v8crKM77/42LmQOD5+Xp4ST5C5jAuxNZGZUNsN3nBYPxHNdDAycXJYhchUJOBvsseTqaPNIVgEZybSm3jZK7sihYs0uJFt7gYizYs9iiFJnx+eUjATulEOuyXUXz7HWl4tQqQ9zmqOmUisQNQDGdKZaX2SHBxpt89wOQBz2YWZ0KI+wUxYJE8Z25joDGabiarSW2GOtotLuPzGf9sGbSAqZkLNbmRmAk6NXBd7hoU2I9Mk7RKSe3RFSVN16fVsS3lqzYtu2QvMMROlPFUN0y5tFlHq/8manXZCu1HFvVUzoTdiJuCAnLKZcKMRrhT/WIY+sM1sM+FHJnKXcAQzEZuDkpmIJzswE6eO1cWa6liJqvmMGkvMRKJSonlexQfMhM8/oK3JVmYive+3NfT5DJgJ+WoS97HYTCTNlKGRqE9kSxSYCdg7p2sm7PaoiGkzHUvMhCnLPjORTGHMNROzpznSpyLyZyY+UDMdhu7pCjhNSkrcUZLMQdY2E17zZpgJn9shzYSvYctMOCeh6rPKyERmUHInoXqv2GTMBOyNjcxEpvSWeWaieFTROhQLrVHJtk1nJsxF0T5fGT2DmZqJ0kOaa+IfqCyFWIrYWxgKf83hWsEDmKdBUxuK6jJIU37qZqLgCaItjWxzaYy2DJmJYc9USJA7AL2lYSbyHljFTJQy6ch6ADMBJ8FKZsIJuddm+byamZBBDvU+iYDklr1nYvxgQyXbJspMGOTpxd4uxGZCxhuGRxfWJHUPMtPRDV3YvemwRDcoso+3ZUCTll2YKxtxnol2NsxEqnkieL2EN7O1UtobEal5r6yDZkLSp2MbmpLbKFSvl+eGmXApw4Gu6BXMRGS8UuIGSgV0bT1xD3vSjZMrBjCftcxEGCqQuHDvjQhmQmQ7jTCMMWwmgm/woRJH203oeZYR1LKtE5uJToydn3Deoo+NH73MyYYivJ8IIxalCQ7bIlNb3SjYJ63b2eLN6xiCVoWIFK5pJgwi/CGi0pvZGsRPhIjUbtBMGIrlBqWPQlVeuqiwPe/YuDOlE/yBZqNOHLVCpRlBobbKAKkGmrJ0faJWqDSyEzMBx2Q9M3HryZ6ZOAnkYdLTq/btwwpMTais4NV8RpviDe5yNsr2TIjHHgRnWcYZEYBdgplYjVM0E/mTH7BLmgPj1mekA/sjwUwcgdLoi+0xzAScMpiJ1TgxM+EnOHha4laDmTgC+ciEm9eomUWAU+AMzUTxEY0QE5+4nMJpTnPArQYzcRyyZyZ4sgFOHUYmAAAAYBGYCQAAAFgEZgIAAAAWgZkAAACARWAmAAAAYBGYCQAAAFgEZgIAAAAWcUAz8eaFfdPD2FU994leLpz1LOB4NJddGP+ahwO9EGLBOzqL2Gp3L2k403c9uTbOe0s6wOHZv5lIVwJbiWXZpit+ARwUu+BT1QTYBahGvgTpFM2EqOya1uQ4DK3ChZmA02L/0xxN1XcGJcSUVUN3ZCbS5Ub7nCvrmL97flcW1HAHqpU1olVMt+XV49pKpG+vH4R1Sn/xwSWrDWxButClJl70coATNBOyVucZjEYMmQmA0+KEzYQsVt6/Hlu+jvcTOzMTyjE4i3D3+nv/uWwmbOnehXRrnYvJ2N5MvLkQl2BXPM/MhGx8cOXUyS2Ajp9YnZY2N5cEyzhRM3EO9+uYCTgvVjIT727uxEJuF8joZjT0+MHz79y2gBV1c6CzAhIvnD6pLVEEB/Dj1WdJbqP8wVC246iZiSDnEmENrTCQkCArdto0mWNwAwzFXYI3EzbZ3evnj0JBJkP5uqmZeHd1/xcXkn/BTIh7cHs9dgAjeAuH66LOAMFk1lxB1JsJtVREIm9usN2HKjTMs8g4gUQq8CpPifG16vMsHTXHTNhWmMrXmynDOaHQKcMetf4J6Lb44aLoEBVdlXSCktuo9s9gMwG24yBmwpPLv8E6ACvnfrukiQ6sWYQsZVaHJuuPTCTLecuwgUvzjRF4N9KgsenFKOSOQY61FqEzHBGRmfjeJJbMTSkmpd/oU25JbiZkgkNvsc7jg49+cee67ynXS4VGwUiad7RWTqaMNEj6p58GTRJN7fXJfO0LchIV9DKob0hsTYyqVeFrbgtKyIGdV3ClSD5ioYJGqhiVbZBnL+dxM13O3cSQSPW4Pmz0j0Xaora8fqb3Ns+jpZig2j+WZjMBtmUfZkKllJEDPzgh1FVfCvWJ3ec08warm4ncMdgtcguuBF4daB2D3KBnZkJGJmSLMhNJJso3mK8msfk3KauBzcEoehqThjRyM2G33P8ynEo7G3Ln+o31E3qmg5GJZViFqEqdFcKWPmWI/Gi9ESnVmqeQxFqodFn2wCBy2djJWDORD7rIlqi9uqCxpM3UOp3XTQR7Ujc6dP+U2hIzx0wM9E+rmQAbswszoUV9gpmwSJ4ytjHRGaxtJkSeEzHuXELnG9x9uYi9OIaSmbBfu8xttmImnAa7ZH6jNStSosnq3t2Pu88jzMQatMxEP7shgxM8NrEaLSkVge/EbBRWfiKpzsW7R+eflaUqlmvYSDMhByataxU0mrSZqoaxA3DMKcIQVXVQyGckGOqfRjMBtuaUzYQbjXCl+Mcy9IFttjATyViFswXWCoQZDav6X1ynQwiSTIUyFl22Joe79nkIKcJstGk6M9Hlb+g9ytbUzMRNNNmBmVgVq8qJ8nVYH7BUZdMtVlZl5LwLX/p2ZiIRPylIH7uBmYh7wLe6MajQU+2f4SYPKn2eYKh/MBNwRE7XTNjtURHTZjoOZSZE48NsxTePzFc7xqDHFdKRiYj+8QibuUlp/EewDn0OinFmwtY2djASWW4tcjPh/yi0n+kwuMmOuF9gJs2R85GCHZNJqS5ClFLt1QbisGaiUtBoZpiJEUW0+mdYyGckGOofzAQckY3MRKb0lnlmonhU0ToUC61RyXYkBetgpT2eX1BbbPqH35p/w5jEo1dmr89hyEz88tH187sugcnh4+ffOjPhds0zE2uQm4lRf80h3eLnbmASTW0oieIwRfnxOmodQFTcWDMRfTaIQRlldHK3lG9Z2UwUjM5I69PsH1fP5vDGUEMKp3ugfzATcERWMhNOyL02y+fVzIQMcqj3SQQkt+w9E+MHGyrZjqNgJtzwQ79RJi+CZLonHoL2S8p+76CZuPvxvWBTxKB8fM/ahbKZaOa2KgUzkWwUb5EOS9ius10RGy8YpmUX5spGnKcoU/dV8oyESg3jN82ES+z3ShH9H4wMECu0lJIcuLaZSFot+TdNQKDZPwapvK5q/NccrtyoD2OK57TZP81mAmzLWmYiDBVIXLj3RgQzIbKdRhjGGDYTwTf4UImj7Sb0PMsIatnWCZ4gCqXcwSWk29PbcZdPSNCUf3dgbxrEo8jYw5HMhNiFLNRTETpBaYJDxk5cE2ACLRHNpH00Ik59JCKq9pqidSlZiUn1nFL6A0XVxpkJQ1SlvFGrmwlDX1sTEzKv949nRFu6BKE+0cYQ6th6npgJOCLrmQmAcTjLldsgaGElJFcjh9XCqfoKALAimAk4MDLWsuXYyTkit861sXfrM0bf9wMAbABmAg6Gn+DgaQkAgDPjDM1E8RGNEHOfuAQAAIAKjEwAAADAIjATAAAAsAjMBAAAACwCMwEAAACLwEwAAADAIjATAAAAsIh1zYR/QfXE11rDOMKqFhLJQlnhHdUSvMgBAAAOyS7MRGk9jq1J1wTZO+IkKi7BOYmV1+E82IJhAABw6uximmPATPglxCrvm1ILjI1ef9ywNzPhF/SSSNcjNcj6XhW74FYWXXs04ghmQlYZDYuEpeuRAgDAbtm5mZChjs9ubmyCgplYsIz4nsxEPOpQXAerJe2V5UMXcmgz8eqxWmX03dV9/AQAwMmwlpnQy3mn6m4l//l3yRrlglX0cJQObyzMgU7vxW1kpuHNixlOQrJKirMxbCys5FfGDDrRbT3WEC9Q3i/ALZMU8Xrc+TjEXDPRHPDQte0q4JZHz2NbYyHuQa1jbs7uRbqC+SazOQAAsJy1RyZKAh8Wy/AWIXcGA9McZTMh9sV4lJlMH5moaLaVeafEJkFiEZTyiZPo5dx89VmJoqfZho2R/1AhwxjaKOjoCpUEfZW+eaQMQVyfJKXloCMTMsFxoTrh7fUDO9lx/8t+3iq4nIptAgCAo3EwM6E2yhCFfkhzlplwbuA7NSIy6cHPGdMcVnGdkokSO822pqH8vELsEmrarLJSZMZlzshEbbvFtiWqtq1tNHQxx0zooQ4VlToo7BzHg6v3/tvNpbURN9ZP6JkORiYAAHbKocyEfjRyFTORPZUpacb7iRlmovcNVmi9Rmaq3BFruR9jyOS5YSZ0tnPMhBtvKO7KrEOeyRwzMZveTPSzGzI4wWMTAAAnwGmbidgNTJr4mGEmRF/tXIAR6YdfXN8Tse+HK3wCdUeeCrm+cQ9zChuOTFjc3byLaJKlr4mKI5uJV9FkB2YCAOBUOFkzUXADBzETRl+NeBsrYJyB+xxEWpyEut2va7z3HM5P5IMEhmzjXDMRkDR9nsVCY+aYCe2WVAzUzeD/KLSf6TC4yY7Rf+sLAABHYxdmoniUpmQmcuswyR/MeX7T3tB//Pzbfkzi3hevjEi7cQWZU9DPMDY1Xkl1dmBJyJeaCYNONuKQ8pDJVoz5aw7phDEtBQCAw7IPMyFbGtJeMhOurD4fW0pzeCNB0rccTAF/5+3v6Z22BY2PHw8M9+hB+cxeLcyRgXCTDp1Gytd02GCOmXj1UD91kWQrlW8OTkgTyo+DbIG8ZyLMcYi3SIclpNP6DgcAgL2wkplwbiCJYCCGzYRBnEEI7wnEQ3QbQ+is9FF6+yhkcCIcPmpIQ2S7FzPnGPpBhaB2Lk2q8WpvLtLRBEFhPGDeyISzKbVs472F/KMEB5Bw8RM+ShMcoT4HGy8BAIBRrD0yAbAdzszFU0IAAHB0MBNwMgxPzQAAwDHATMAJ4Cc4DjDVAgAA0zlDMyFPVtZi4hOXAAAAMAQjEwAAALAIzAQAAAAsAjMBAAAAi8BMAAAAwCIwEwAAALAIzAQAAAAsAjMBAAAAizigmXDraExeQePUcKts8HolAAC4NezfTExaWHw8G2WLmQAAgFvH/qc5mqofrTWarUTaYjMzMR2/lHkf3fITsqx57kvCMqHuQLVeqFsGvbyC6Jro5T0vJ3Q6AACcJSdsJmSB8v712G698tF+YmdmQjkGZxHcGuXJLo81E9ZweBfSraLpFtXc2Ey8vX7wwUcPrt67b++u7peXCwcAgNvDSmbi3c2dWMjtAhndjIYeP3j+ndsWsKJuDnRWQOLFjexQW6IIDuDHq8+S3Eb5g6FsG9j7fqPxvdi7GY1uIMF/jQXe880j0Xi/YJWNh9/6XbljcAMMNkHTTLj6PH8UsjKZy9ctzcT7L+989IsLnb+MUkRbvB9ieU8AgNvCQcyEJ5d/g3UAVs79dkkTHVizCFnKrA5NZoxMiHh/bAT7e+sJzAer4tYlWGPRI1agZCaUyZA0wSXkjkHE2FoEMR+97fBEZsKaG6mAKcKk9Bt9ytWx1qEblnC8ufjoF3eutXHwjd2wGgAAsCf2YSZUShk58IMTQl31pVCf2H1OM28w00wojXcDACKckXWomwnlGLRLyMxEbzVUMuUS7BCI8g3mq0ls/rWFqmQN9CCKiuEhjXxkQsxE8uQEIxMAALeKXZgJLeoTzIRF8pSxjYnOYK6ZEJcgGu/EcoKZ0BrfMBOREnvf4EYjQjK/0eYp8m9KvHf34+7zpkMC8pDER4+7E3RzyWOYAAC3nVM2E240wpXiH8vQB7bZmZkIYwM29CiF9Q22IJP+rn0eQgo1G22azkxIbv6oYunr4vyEj4tX+TQHAADcLk7XTNjtURHTZjp2Zia0gdD0j0fY4kxKk0mwDr2ZUIwzE7OnOXIKEx8AAHC72MhMZEpvmWcmikcVrUOx0BqVbFscy0z88tH187sugYxJfOvMhNs1z0ysh/1L0exPQ6V1m862AADAjljJTDgh99osn1czEzLIod4nEZDcsvdMjB9sqGTb4Ghmwv0JiXyXfD6+Z/Mvm4lmbiuTPj8RkB6wQx2+gQAAcN6sZSbCUIHEhXtvRDATIttphGGMYTMRfIMPlTjabkLPs4yglm2NATNhVVwmC3QEsZ9rJlz+yjT4Uo5nJvwTlxLVRyX8NIrrIgAAOHPWMxMAPeKBDjRAAgAARwYzAevjnpnIR00AAOAswUzAqvgJDp6WAAC4RZyhmSg+ohFi0hOXAAAAMAwjEwAAALAIzAQAAAAsAjMBAAAAi8BMAAAAwCIwEwAAALAIzAQAAAAsAjMBAAAAizigmXjzwr7pYeyqnrukshxGhHtr05Q3Set1OgBG8fbrT68+f/baf0t4c/35J0++fu+/wQKknz9xQZcC1Nm/mUhXAluJWdliJmAfvL95Wte218/qPgPmgT8DaLP/aY6m6juDEmLKqqGbmYnpNM1Et5x3FyGluJb6qqFuuVGVrVT+MK7l7fWDysqiby7C9g8+enDFtXkm1i58elP2q9ZnXL2ctoDuIXn90t/oh+gaYgW7UHPfWGlX1GpJX+2HdcFMALQ5YTMhi5X3r8eWr+P9xEmZCVniXPDewtahUhlrJmz6dO1yt/jW9mZC7ML9LwvjT++/vGN2XfozJEuZ4ydmYfX46VflIb4fvnry+SfXOx6XSCrvvIXodMUG+YEWZyaUotvtmAmAnbCSmXh3cycWcrtARjejoccPnn/ntgWsqJsDnRWQeHEjO9SWKIID+PHqsyS3Uf5gKNsmQb+tYItUR9MZfo0riV7+e/qj4mTBTHj5N3H3+nt3SGYmDGF177aZsHvvfXH9MBxr8pGvG5sJaxGKTqKw693V/d5beKQPVfMhp2kXWj4jwyZ++cY/FmBUXHI2n1Xm7u7fR7/dCbkuKN9SIauhcwnBLlTNhK3J9ddfPQnHmnzs1xFmQvxKMu8j7erLqjSzp2QmbMV06Xn9vQGSOIzpATgWBzETnlz+DdYBWDn32yVNdGDNImQpszo0mT8y0ZkAp+uZ8uXybxEnEYQ8lswwZhCcgd177ws/4pLnJlvCREauu5GZeGfSSFYmz36jT7k+MvZwkfkbwY5YRFMerx7LZMdj5x0d3m9NeeLk1rHio5ei658+MfonuvjkqRE8rYjmc1+Q8xyd0MZfRYzHmZjMTPRin++yaDPx2lbPFmp8j03pNvqEVcToRMkiH9BqZmCGmZA+CV8lW/wEnDH7MBMqpYwc+MEJoa76UqhP7D6nmTdYYCaUtFvxS5WvaCYS4e8MgcWZCTXGoBPnudm9skUls/7DORWb3m4MvsHU0Hw1/9r8x5mJztzEMcKFWH/w4OqVTGf4CF4h9hnyUMXjG5deX6EZmRjCKlbVLnjdHYuouCicyK1kK4pYtgWROhoiEzC63Mwx9CWqXb1LsDKsfIP9KqMpUts+WZNSzcttNKSJBbtxkpkQ96D7JLEaAGfGLsyEFvUJZsIiecrYxkRnMN9M6JmFsWZCDlQaGaUJ0xwdDTMhXxPfEG7opWJhY2cvTNEf37vbfd5yZMI/d9nPZchEhvMTvZlQsxu5mYABUgHTTJarXlPFTIgqN8xEnr/orsQIRfckQm6/hhYF3+Dr48ryG+0UjEtmCnWDKO7zqKJjaS85g55iN041E4VMmg4G4NQ5ZTPhRiNcKf6xDH1gm8OaCa/3wTHI/XeXz7CZ0CMEibGwX036h1+YTOxnu9HmnI9VGLL6r4uYidgcdB7Cf4gnOzATU7GClOpcoJfbsQybCSfqOpLSleqPRNyDCqWvneSbNPI8hP1sN5r8VetUJ7RtgUIeB/G2w9Y5HkcZbOZkM2HTp3mawEzA2XK6ZsJuj4qYNtNxYDORegKdyZSRiQhbutllfIP519bNZGKPjc2EYpyZWDrNUTQT4Y9C9RMVfrLDf4NBtCJm9M5gNANmQjYqBc3utqU+T14+s/+OUXShVU8v80aJzb+2OFMlbx3KVmm0mVCVV15EGGymZaqZKGYCcMZsZCYypbfMMxPFo4rWoVhojUq2bWabCSvtVTFeZCY+fv6Fex5CUj565c1Elqew8chE8mCERdmLUX/NITXMuhSEeKw+Ybys9rTNhN0bFZcIZJJy7KBIX2iOk+evn7lS3JiE1/5UuR1TWm1zcE4lMmRDzXSMMBNirboDW80EOENWMhNOyL02y+fVzIQMcqj3SQQkt+w9E+MHGyrZNpltJpoqvsxMhOchXD72q3UtZTMR5bwJ8vaIbrBBRiM6uyBWo5vjiFN6pNp2IGRDx3OytISz6TOq9IJXMhOSZ6e7tnTzNRLLXkpl7zjtbKmsyPMT9/caBhmNMF9tq8tmoij8NcRGvHyWlN5uZqDU+W5gxm10TkIfGHsLgHNnLTNh9FKGCiQu3HsjgpkQ2U4jDGMMm4ngG3yoxNF2E3qeZQS1bOs0zYT93E8K+OgSdzLZRzhwtpnweXZuxt3WH9VMGMQl+Ihff+n9RNhbnOCwNTSN2rqSJ0hZTR2TNLWnbSZ8AqeRtui+FCfAUYmSwxg/0TITXpK7ZkqJTrBXMBO+ObkhqzWzq0Acqhqu1WGjzSeqTLAmIYJlATg/1jMTUMepfnS37YS/4hJuM+LJNvyTk1MlEyqF3MFXfAYAwAHATBwCEchknEBuwTETCXisMnLLXruvbd3rAwAcAszEIchHJtycCE8GKPwEB30CAHBynKGZKD6iEWLiE5fr4Z9v6CN/oAEAAOAkYWQCAAAAFoGZAAAAgEVgJgAAAGARkZn4f//u7/7x//wfgiAIgiCI8YGZIAiCIAhiUWAmCIIgCIJYFJgJgiAIgiAWxepm4vd//Gn/XocP/+L3duPf/rbb8sGzV3F6giAIgiBOO9Y1E85J/PbP0+0uZO+6ZuJ3//XD3/zRr/42274s/tfzf/Xhz3/937LtxBHjv/37X374r5/+r2w7QRAEcfRY1UyItPvRiEJgJurxu6f/on855r96+rsswc7CSntX4YNo/J7MxO/++Ffd2qc2fvVNkuBvftXv/Td/vPuzSRAEsTDWNxN1acdMVOKvf20k+V887zr/757+6z2Pi3z90HoIVcPfPX3YV36r2O3IxN/99t9EfuJ3Lz40HuI//I37+uf/AT9BEMT5xy7MxN/9xZ9UH6qQPMPeP+kuyn/+rNsYxWhj4RTRRTcSoDfqiKRdrIbfpRyAC52DPsr4g19++O+/1iMQ4VjZNSCTlWxtbrby/ThBmk+xmT50Q2zd+l32KFs9cTkuHv613ytltbxOLdvMooVS5KvNNu4fX2I0ZqMiammrmduHHYf48Le/c1+te/jVi7/r98owRvAWPlL7SBAEcdqxipl49atM1CWShyeKZkI29iklq0//a7gWv/pV/9kZiN5P2Jg5MiHa0+vc1w9jDW6MTERSKjrXS0L8NRZdcQxa6kRORC/drro8N7INQhv2Zu2qNjMpVFL2eztt9gmkQ1zNkzyTaGU7bCbKJfqwCeLTFCKpUno2tw9tJiJjYeObP5bJjj/W/xd8Yw9dT4IgiK3i2CMT9g89Yn8gf/pRzkTyj57JmGcmRIO7W+08qmYiO1CnzNROi2XuGNTebgCgJNKtbJ2ZUEdFiRvNtCXGd/C9uTEh8qwL7bKKkmXRzHaEmVDHZpXP+iFEo5nNkPpIt0cR139EyERG8Aoyx9FNecgMyB//ufUT8UyHdEvXdoIgiFOPI5sJGWxIBjDs4ETlKc5s15KRiboC1cxEYXsvn5E0SoiB8Eovn4ta6MO5DRdVxe1TumwHFLfaTFHupIG6IDmw5GzaZqKd7bCZKNqXsKVqJurN3DTEQ7hQRqE3E2p2IzcTBEEQ5xU7MBNqIkNCZjpCsuhxCok1zIQJLd7pzWjNTIhY5iGHi/hlu8abiRCi1ia8NLazHVbccjNLwqwNxAIzUc92MzNhonU2Nw/9xKU3E/FkB2aCIIhzj52aCecYnJNQGa41MqHCq3WkQBNGJvqIpDGL0WbChgiwT9zMdrzixs2sqX4oSCpQNBMun+KuoWy3NBMhSmezFlIf5z90zPEifjrDfvZ/FKr/WFTtJQiCOM/Y5zMTboukj6xGPgOSb5kemW6pyYs4atttiF2oqOwCM9HMdpLi6sR5Q6ItdTPhxwAqjqqZbWom7K4JZqLp5FTkZ3P70HZh1F9zSCVH/x4IgiD2Hsc2E6ljiOY4oj/fkMzTaQ53ePWdm5X461/re31RqVgC3bW+oKaDUlobRWiYieLfkig5bGSbCWckya1mJvVJ3EPDTITO0Z3Qv2eima00RLkZOxIw3kxU+2HwbG4d8vca/aSGzHREfymaDUu4U9z3BkEQxInHIcyEeII0VDJnCHyUvIIL4xiK4xDiP0KMnPLoruYSJXMQ1C5PYGWv3xWLrhfaLmriHUd6VFafWraZ4iaS3GymM0Y+YpFumgkb0bFxuxrZ6vqYytiUE8xE0pyxzdwi/FxGiGwKwz1FUdtrQ3q45hEJgiBOLVY1EwRBjAuxpIcdQSEIgtgsMBMEcfBwQ02tsR+CIIhTCswEQRwy/AQHT0sQBHFOgZkgCIIgCGJRYCYIgiAIglgUmAmCIAiCIBZFZCZ+//vfm68AAAAA48FMAAAAwCIwEwAAALAIzAQAAAAsYnUz8ePVZ/3Lre/85Y9225sX3ZYPnn8nyU6Ubx79/Jd3r7/3306fby/tOw/OqUW3hbdff3r1+bPX/lvCm+vPP3ny9Xv/DQBgc9Y1E85JvLjxXxNk77pm4t3Nnd/80cUb/217MBOwC97fPK3bhdfP6j7jcDTtDrSx5/fq5eEubACLWdVMiLT70YgCOzMTrx7KulD3vnjnN4zgpMzEu+d35WWLOh698jt3yqvHsjjW44ofBYe1C5/e/OC/xexFhzATC8BMwMmxvpmoS/u+zIS9Kb98/sXHk8zB6ZmJvbuHnjcXxkZcvrm5xEwM8frlJ1dPv3rrv8X88NWTzz+53oGGYyYWgJmAk2MXZuLtX/5p9aEKyTPs/dOrMIpw87zbGMVoY2FtgRHaH67vffjx8+wW73tjMsLdvB66iM1EuPVXgm0ThAMffus3GiTDy2/0aIHPx24xRbgDbVlu6iGqlR9EcaGy9ceGQ5KjmmaiPyRLk8995FvW5t3V/V9cSDXqZsKdFN2rt5OmXWj5jAqi+p/4yATMZhj2qkLDPIsdI3F7u5ES+8RGd4iKscYiqk/aFlHZsHe0Z7JVMolVzklldLbRkE/oT9WopIvkdPhdrdrqbOv16fszDowF7J1VzMR3F5moSyQPTxTNhGzsU0pWn92E/5LfXfSfnYHo/YRl9siElWeRpaDHPU7ve1X+/ovL7rMyE2kyv6VTXBHgTvk6dxLKEn9gVVwqcPdjs92mMR+s57B7Q0qTwGzxxILq6tAXKo6kSyx7a2bCU04TlyJV3dJJRFTNRGjsQIvOnuYd/+RHLyW3XufM18Qx9AIpOhf2BpkMe8VzRLVq1rPO62eq/iLhvULH9bFfR+YfrIA/NslH9ga1Tjqk81K+4WIduhpKYtXhP3x1nVS+nG2oj9+b1McgWzAQcEoce2TC/qFH7A/kTz/KmUj+0TMZc82EVXovuvFgg9tVGKtwdIlFtuNk2YE65/yuOux1Gmkro9J0ViNH7+qP9UR1mG8mDNJAm3P3YQRStzwmyT8jE22szFTtwvRHL1sjGdmTGSqxqJ0uK0s800zE5Bo8ySoFRLx1M1Vts3pGQi5mQrdL723Vp5ltWp92HQBOgSObCRlsSAYw7OBE5SnObNdMM2EFslO42ARoB5Dj9j63+poajvxAET8vw/I5PUTo5VylaZgJLf+ZFcjNhBb1ghJXzYR2BgfVb56ZaJJptmKOAomMlf1E7jOU5mVlbWMm4myl0Dl+IlP9fqqo0Gm64WImKq2YeC5Utml9MBNw+uzATKiJDEFmOkKy6HEKiRXMhJVJNbWR3euXxdUit+kukpv1gnJLrGEmrEWIs63Vdr2RCYsrdyCHtcFMtLCCVNMYK5A1bWtiRVFG3U30mXvlzmJrM5GXG2Ur6u5Dzci0aZgJGSTIY4SZaDawnS1mAs6PnZoJ5xick1AZrjMykWuzDa/6Y0Ymvvd37ZGfaB8430xIbZX10fK/pZmwj6b+/N6jS/tv9ExJA9ctWQzUIQYzUaeXwALqxncmXqeDhjUz3MhMOCehjqre/Xu1HucnGmZiQLYbZqJeN0M7W8wEnB/7fGbCbZH0kdXIZ0DyLYMUVF8E2w3m11Xf0h8rWqvzkQOT4Yqe2WbClhhlexgzIduldVKBaoesT8NMOBc40KIzZvBWONLLWWgD0Sxu2Ew0tbaCaHzUilYm45vcEu+2CWuZiby2ima2g2ZioFYA++PYZiJ1DNEcR/TnG5J5Os3hDq++c7OE1ensVluNBPjb616/K3/NkWubHJjYlMBsMyEbu6cWXN26QrcyE7GBaLVrfepmQmp1WGezK1ra2RT+BsYT6KNsEcoiyNeypI0wE6K1E2+voxKlUUbLQ7Ymw7TEWSMTiQlo1rNlJvxeVQf91xytbNNTmZ8+1/ZxrQPYA4cwE+IJ0lDJnCHwUfIKLoxjKI5DiP8IMTjlEcltTzwAIBLrZDt2HpGZCEqvtkQH6mNnmwlDEFETZq+W/8wKjDYTKs8+1NhMnu3GfkI8RBaX0el0o0EHfiB0N7Tu0ZeMiot+h8jMiuRcSDDCTBhE70OM8zpOg12Y/JNsowxrvZETtdFEJtLVBG0zYQiORyI1XrVsh82EwTkVHzNPLsDBWNVMAGyK82rVuaSzxkpLTVGsAI9X1ltIKt4AsDaYCTgZZIBk9NOgZ4Xcr9cGva3PYH69BWYCYGswE3AC+AmO4jwRwBCYCYCtwUwAwJmDmQDYGswEAAAALAIzAQAAAIvATAAAAMAiejNx3cSlBgAAAEiIzMTf/++/LwZmAgAAAGpgJgAAAGARmAkAAABYRGIm/uLf/vRnPzHx67/ATMAmuFdi39L1NdajuJpD4OivVeC9DgC3jeLIhFgK5SeOaiaStbXOlZNqZmsJMfe2yrpXwEysgV1nq6rWdjWscatqbcUiM9H0SQCwT8rTHH/7n//lT/75n/ztocyEW5TSR7qME2ZiK5rd3mSJmYAVKC7R6ZmzgqhfoLJ8lHUGasXLMWAmAG4bdTPx01//l0OYCbfgtdKeVw9jTcVMbMFgtzfBTByX1spezSXBCsii3tevxTFkZkJMxrPXPo3fOALMBMBtY7qZePXQ3MiuJnuSW1GW/NpOWURF+zFzF1rAgjZL/i6iUqID04Uoo1t2F+rGXVdsUj9ELQoZjmqmNCfsSnW6Wh/bdts01ZxwbL3bO4rZFnpGQrLSldQRCtV9ni3ZZXM2faLSxNVz7icK1VhddGFZUan22Sw3uuIKojYrJ9sFM2FF3W2ZaybEFsiYR2cOJKvEZ3jLEoZAsoiMhR9EkUirJJn7YBlVgIMy2Ux4OVlr/cZha1K9ZXdq10lOLBidunglk8Rqr6p/ojTyNRJdXXq0V5SvWfmeuAL2ayyW1WYmpUQVaNenM1LeuIgeu4YPdftAM2VLzYtIS/sa5tjMi2aier5Uzf0uXbqc697tRSdX8D+GRntPieaN++whgYKZ6JlnJp5+GhRdZl4Knx1p0fUGxscmtcq+zh4aAYDplM3E3//Vrw80MtHfcfZCG1NT2Xy7FhX5rEWloX+RWCbZRjKWZzIonB1FBVXUmpkfqFK265OdKbW32e2DzWx05og+qZsJVRldRFqcPtEDlXGkmZ8yGz16ub6ZiByDykG8gnrgw+6Knv+omokspR6GaXosANiaipn4n3/yz376s3/2n/9HwUxsQXcPXRDUisrKIYmEKJWK9WaAVJ5VcSK6IZ+CTNpqjFIpObbhJyrNLGzvqzRQn1IXRVS6fbiZG5kJvVEXkTYk6RM51+2Wng+ZoCrmPHoZ2GBkQjsemZrxW/Tn2BA4arZgIKVUEj8BcCQqZkLiv/zavnPCWIrNzYQn3C5HSlNR2UTeBLkBdTImAlM3E17aVXRFqExSGZNdeYy+5VXindWt0kzR1P6oLuTwgfqkGlwj7fbhZh7YTLgahr2Sf9LnoQlJPc8PK6g1ybciXfMZg2xsJuItyhbY7UnOFTMhVsnahSRUSrEpfntsOwBgY1ojE//2r/zXQ5kJi5N5JVQTzYSXnJaZaBahZcmGlsxBmRyJV+uoepVmVrdbBuoz1kxYdJ8MN/PQZkLOZh91u+C917n6CRHLmqjnN+5T2NhMJDXvxlfsh9Q3jB+ZqCE54CcADsnkBzD99ToTg7XQqiaIuhdsQa6yeovIT9lMRLe5gjqw5FF62nunkAlqrZm17cJwbeeYiRHNzDtfMXT4VDMxbG40JaPjWlet8KlQU1khHwyYxLZmQmquR038kx/lgZbOasQ0m58yKTEALGaymXDX5fEq1cbkFucjJiBWGiszJXGSmvTbJVknOQ0zEWfo72WD0pSkSOHGLUYLW485UB9VqF6tmc4TVISwWZ+6mRjq9sFmNhO4Lq0ZoNw3COlGfSLa7iR+Q0byqxBcbdstOgFadmGxdm5pJuKHJBxS4U/Kz3+42YpCZaSSlfGG1y9Ts8LIBMABmT4y4YRnvfs8EdE+Stl2YpAm6JyNjUifWmYiztAIjE3cZRvl6aJgblTUVTPG95uLSc3sHE+ISCyr9ambCcNgtw81M2pOWooUHcJLeKFjVbm2uJqZyCtjQtUnzrnkGHx96o7kBKjcrwuzH70Uec7C+wbxEFmMsix2yEEdVTAizjHU9D4qWpeYPjmhPEq8a05vAMBsZpgJd2U/6etyFSdLkTQO3WfD1hR+b2IOSoashlifbDjklCjPCDisMNd8xl4pDVcAwMky95mJMxVX0a3k1rY9yAFbIwM2iQ+QH+F4M1HwiCeGSG9tomHZo5fHgWcaAM6LopmorRrqR7ZP+aI8QK46boD9jJu8f7KRCTcfNG5szE9wnPbTEmfH5IcwAGDnJGZCbIQJtWSoMhO3gmxqHx06Ps7S9XHSExa3mfDcJU4C4MwoT3MkcavMBAAAAEwCMwEAAACLiMxEA5caAAAAIKE3E+47AAAAwCQwEwAAALAIzAQAAAAsAjMBAAAAi8BMAAAAwCIwEwAAALAIzAQAAAAsAjMBAAAAi8BMAAAAwCIwEwAAALAIzAQAAAAsAjMBAAAAi8BMAAAAwCIwEwAAALAIzAQAAAAsAjMBAAAAi8BMAAAAwCIwEwAAALAIzAQAAAAsAjMBAAAAi8BMAAAAwCIwEwAAALAIzAQAAAAsAjMBAAAAi8BMAAAAwCIwEwAAALAIzAQAAAAsAjMBAAAAi2iaibdff3r1+bPX/lvCm+vPP3ny9Xv/bUukGp9cvXzjv4+gWfOQocRhmqCw/daVfl2r4mnj2vjpzQ/++y1kxo92JPrXe/X0q7d+c50fvnoyKT0AwGRaZuL9zdO61r5+1lDrdVndTAQO54cCorKncUFvdc5Q92ImtjITLtt5HvT1S8wEAGxEw0xYu1DTA+szwoVSPhekRRRlgzuzMezUTNguPZXRiCVm4kzwhsDFkX7JMfJ/ba4hwEwAwGbUzUTr0iMDp50olu+WjiqcOzYTp3K/ftvNhP39dyfLzRQc309oEz8ZzAQAbEbNTMR2ISG9KpUutXIt7vVGvpZu8kJB6i6wl1t9a1gUtlq2Qe1kdKR6eFUvdbZZJ/R5TnYGDTMh3stHdMUP+uE6WWKCAapmayk2U/e5DilUt11Hd6J1gsRt2IbYTPoqpV0RnU0X/Tld0O0zyH//o43g4I826uH4f80QDTMRnZri/1zbvSUz0a5P8/8CAICjYiaCGBexl634KinXuCi9XNrChcnk1l+GEufRaWS4zMnFKyk6L9HSyNbW/+mnvR6IgGWXwmK20pbumpseGLXLfi1dnVOUD4gianInVElnuq8qQbktJZKUr5+pxrabaSj3uaP587CUEoSGVE509FXqo0qf1e0LyOrvK1/rkBLVH602JebrmFOpFV1HONZUr6+tFFH4hdhMsn5r1mfwRwIA4CibCXsRqV437TUl0YnsQmO/Vm/jItlIvIWhcGxL2Dp0ttn1NL4sekrZZqVHl2Cp7fzrabFb8jxlS6iYkzHd4aN6wyCdkJ0pR7uZllYprZyFUoKsIVEdkuLi87Ww26cT94ar2xtbJf1DHaDcgVk/T0K6ZbgOtug8WbHoVn2GfyQAAI6imShqnqd2OYuuX+2LTqQ0kXDWKF+XE3S2uZjZKqXyVsg2r3mclTRztrCVOlbyTzbqTo5ldRK2uLzVlqFmGlp9nndvQilB9svRvZH+DJLEy7p9On3/9JWs/fJrlDtQembuCR1bh3Ky4v/KRn1G/EgAABwlM2EvIrULlr3ol32GPcpfaPLLqBcDFeGStMhMVLPNr3ql62CerVyF0zxN6AN1mnJXVKmaiaRiUoS/juvP05Hu9bXtMxnTzFqfWwZFpdoo/buKe0P9ftyuxDrM7HapSXfgWDfgdPR11Iqs/gPUO1BaN6k+gXoddJ6VnHNz4CnXZ8yPBADAkZsJkZ/aLWD1emToBMB+0Jd7kXx1VKQ0881EK9tczEo1L2TbamCC1+kpfiLtGcuQ7srnkVWq4zU15DOimXUtLNc5YqhRQtQbqXRVByFmdPt0ku4SWh1SYji9PQumlKI5KJP1oUP+66myyskGT3pSnwn/FwDgtpOZiaZOtK+Pdq+5EqXXoM5kBKIiZpuJZrZZK3zd/DdPIdtm8zOaxqtAyUwUMom2rGMmDM3+yanolqPYEEUp/yxDnclQhhFTu30GeRGTamhp/2fxTBTsukuIenummTDoNNP+LwDArSY1E60r4ODFRS5qNqIc5LrcXdpCmpCP7B265pZq1cw2qarszWtebKzdWL3mRn8Q4UqZIjAVQYqrl7iH5OsEXr/UZSX5NJspSK0qrYs7P2eymcjFW7Ow22cRnZRRv9KE4q/LdILuFjkL9W7MyPpQkA7pek/yLGVrW5Se8XZ9hn8kAABCYiZat1/lC1mEPbykQH67DXN5jZSmdZmWEsOBIVTmQ9l2e+ML4lC2WQJdPXfhDqEvxCOod69IV4iok6UyMy/ocUPSc9dqphAlSPeqzu/7IdoYwpcruek6xL0Rd6yEavWibp+LPimVn2hO2qsS+qQHsZcYna0j68OAqqopK0pW6Nio3HZ90uZMrDAA3BJiM2EvSaVLlcXKc1kIARbiBC8amXB2sPZrBACAHaHNhFy+a0PNpTFSgHWQG+tkvCEZcgcAgN2SPYAJcHjykQk3bl99igIAAHYEZgL2QTa1f6AHIwAAYDGYCQAAAFgEZgIAAAAWgZkAAACARWAmAAAAYBGYCQAAAFgEZgIAAAAWgZnYFf/w7O7PfvLTn/3k7p/xejAAADgVppmJt3/5px/85sWN/3YYvrv4zR/d+csf/beD8MP1vQ9//vBb/+1w/M1vsBEAAHB6nLGZ+P6Lj3/54c993L3+3m8ewZHMxKs//OnP/vC/+y8AAACnwrmaiW8eGQ/x8fNuXTLjDx698p8HOY6Z+Ic/+wPMBAAAnCC5mbDi/YGPP716l2/U0RmLIPlvXnR7L8IaTTfP/+iDz2760ft3N3fUXuHHq8+6PH2hYly6jX2MMRbiBu594StfRI9bdCnFghQiGIt3z+/+/JfalHx72VsW+/nyG5fGHTjevlgwEwAAcJokZkJMw/Pv5LPhuwttAlojE53b8HslpbcFA2ZCvqoEP14914UGmzIFMRMNLRfTYIRfyJ1HdWRi0ExYD+GzGmFoYjATAABwmsRmojBmEDFgJiqOoW0m0r0pc8yEGmMoeILMK8goRfAWhgVmQrsHW4cJz2pgJgAA4DQpjUzU/cSAmeiHNCKaZmLQK8wzExbxBM5SaAeQWgeD9gSG+WZCZVIsqMHb3977yU//49/4bwAAACdD/sxE4fGFjvXNxNBYyBIzEQijFF7XKw9GHM9MiI342R/89h/8dwAAgJMiNxMBkfnET5zWyITGKr2fgxjWeEYmAAAAxlM3E4Z82MD+sUY6XCFMMBPiSLpsZSCk9cyEJKjkPB5lJnLVz3j1sPzsZGomZJCjZiYy5zEAz0wAAMBpEpuJNy/0GICofmwd3HBFQdpbZkLn45xE9FiG+2vS/tjkrznEi5QdTJVvL2MrILreDxIkX3OqCcQ9+O1huqRsJmRYom1ZEjATAABwmqQjE53YS5RmNNSbJFSClpkwiCGQsIMQNnE04OGnVFzkvkE/xjFyykO03Im9RDZCkD45kSawgxPdXjXl4XxGOMROiGgz0R8yYYLDg5kAAIDTpDnNAVMYnj1pg5kAAIDTBDOxGkvNBGtzAADAaYKZWI3FZkLWH2fVUAAAODUwE6ux2EwYxE/8FEsBAACnBGYCAAAAFoGZAAAAgEVgJgAAAGARvZl49erVP/7jP7qtAAAAACPBTAAAAMAiMBMAAACwCMwEAAAALOKAZsIt6tFaIBQAAABOj/2bCbsq2LjFvSaxUbZHYI2XZQEAAMxn/9McTdWPljCNVyIdYJaZUEuGzl8ddG2KZsJu1IudeuxaqXevv/ffurVVC02Ill1Vh2zJ+y/vfPSLD3w8LqxYCwAAu+SEzYSslt6vV+4WTx/tJxaNTNiVxwtSfRyKZqJSQ2sm+sXWrTe698X1wyylrM+u8jS5ZWu4r82rx8ZD3Ll2p/Pd1X38BADAybCSmXh3cycW8pvnakZDjx88/85tC1hRNwc6KyDxwkmI2hJFcAA/Xn2W5DbKHwxlO4qiVFtRN7f4avSiE+DSOIEIdj8koEcC7n0RHJIhlKUSOJkvDpOYkL1jzIRNYxPHDsMfG9Vhe8Q9XGon+Oai9xYO1wN5owAA4MgcxEx4cvk3WAdg5dxvlzTRgTWLkKXM6tBk/ZEJcQy92kWS/Mrc/UeCLVs6wY6MRaLl8tXmHOYaEhdSHpmI8+/QvsFqs8vT26CAKzGq7dbIBMeFKvHt9QM72XH/S3V+vXk6aMUAAGAE+zATKqWMHPjBCaGu+lKoT+w+p5k32MhMKP0W8QvK13IAWW5yCx55i0hBE/cwaCZ6r+DmNVwN1eesAlJbG2kbBxDPlMew/Ns5jgdX7/23m0trI26sn9AzHYxMAADslF2YCS3qE8yERfKUsY2JzmAbM6FFPTITySFWrcNIQ2QdHJnVyMcYespmovcKzhlI0YmB6I6Kq+qQcke7gYX0ZqKf3ZDBCR6bAAA4AU7ZTLjRCFeKfyxDH9jm0GYi+mrv4CNj0cl2HyuYCSnOlHX53PgV+9ludOUmDka+5plYQvViu7Myzky8iiY7MBMAAKfC6ZoJuz0qYtpMx8HNhNJvmzIR8rpUzzQTYgJM6Wav+ddmYoroTIzULfIuNqql2CKadfDMnubwfxTaz3QY3GRH/BMCAIA9spGZyJTeMs9MFI8qWodioTUq2Y5jlpnoBiS8zHdU3IBn0EwUKxNmUp4/6t3Dw2+DmSgcIrWtvU9irJmYz5i/5nDVGGFNAADgsKxkJpyQe22Wz6uZCRnkUO+TCEhu2Xsmxg82VLIdxUwz4WzE5cPUOrhxgsrgxKCZcOMBmQ8QM/GxDEhY7PiH/WqLLo6F9DMd317GxTWrtxrynokwxyHeIh2WsC2yQx1J7wEAwLFZy0yY678MFUhcuPdGBDMhsp1GGMYYNhPBN/hQiaPtJvQ8ywhq2dZxsppEUNkRZsLfW5cGAIJShugOHDYTPk041tdBzIEqy6cxe0sVM6iC/LFdHGgwQPyEj9IER2hmPgwDAADHZD0zAbA1hxkjAQCAiWAm4GTY/tENAACYA2YCToB+jsZvAACAHXGGZqL4iEaImU9cAgAAQA1GJgAAAGARmAkAAABYBGYCAAAAFoGZAAAAgEVgJgAAAGARmAkAAABYBGYCAAAAFnFAM/HmhX3Tw9hVPSGg1/U+kTdJ15cg2Qy/bMqUZTsqa5RAjTfXn3/y5Gu1Srzi7defXn3+7LX/NoIfvnry+SeNQyRDk0Di6VdcNcbz+qXttNqZWhl/Ho93ml4/a/3wpHrXE36XBvs79y2afGyOzm3KfxCDrfynNyfzor79m4l0JbCV2Cjb7Sgu9XkkhmQYM3GOtK7a72+eTlSvpplwTmLxdfxMsSeipTEHNRMBW+jhzYT8ilotnWwmRPs3aEjVbTfPppzKiRbkaOx/mqOp+s6ghJiyaugsM+EVK45RAp8uCjrdFmxhJsLqoFOzPawMp8uxGmS0ZmkFjmUm3n95p1sc9aPH8QK5+8XahauXlf9hQ/I2ESmL0YgaK/f2OhzDTIjw136TjqlmwvbtJi52npk4qf8LJ2wmZLHy/vXY8nW8n1g0MiFLRUxaCNuaif5O3c1cTJPwDcyEVdN7X1ybykxc1BszMRtZZv3OtfvVvru6fyp+onlRXltImsYFMBPCqJm1OWZik76dayZ8Ew48zjSLlczEu5s7sZDbBTK6GQ09fvD8O7ctYEXdHOisgMQLd21VW6IIDuDHq8+S3Eb5g6FsR1E1E6JP1ijY0AliM+GHBHSCMEhgo7gwZs1M6ANTv5JMNMjsQ1+obYUVaVu3kqbq0RR/lJu/yKM7XCeI8pSeSeoj3agbWyjRMGAmdJ+XVgIr1Nl1YzATfYLS4asi7uFSq+Sbi95bOPLfxg5oScXU67Wk97PI5TznmAk3MxJHfI2Wm04fOvNQf5VD/cD19FJGsEPkjS30knRLt7GPvrY6z+iMlARJ2qtaOnxeWtR+IdF5Cc2sKOuk8954gid66MFE3hV+V17hhrTrA6M0aU2Krcs2Dp/NDjmtQ7bp+BzETHhy+TdYB2Dl3G+XNNGBNYuQpczq0GSDkYlEL83XXvtLZqKXLhHRkDiTWEfZTHx7qVJGBiIpwhCV4hK4xFZNk5zTsZNvHukEQYarFBLk9YlbFPeeCLxyMInMl0YmCsnifFKDJSWqZibnaANkguNCVfvt9QM72XH/S/Uz9rVqde/BaVy4a8IwTC4/kb6qmOBUPPZKnV3fu8t0PDzeiUSojL52y+fuQCcAK1zWTX36RrkKKBGV2qr6//DVte78cfeycadJzaPejpVbDFM4JE88TH42s+6Sbndpyk2w6Ws/s5RaJ0jbdddFXVFrZvcbSKJv0Ztr1br4VzHPTAQGz6YhqvZu2YeZUCll5MAPTgh11ZdCfWL3Oc28wQZmwmpVcVDBEAmVHJ581bkVfUNxY0Ik2KkpSapnRct/HVcBRcErxJQSpPWJ02RWoO+xBWYi8QdR/3jZVs0s2pECUnoew/Jv5zgeXIWrzs2ltRE31k/omQ6pZP7rOib2WlZT0CkCEFOSH4dc5cfeoRawF+4o58wM6St4puX93lyVE61aCW1fCrVNGJSfvNpezNRRUZqsw0s5tCmczbyedotka/P3u9SBtuEjC639eNLtU5s52LcOOTCco+3NxOBPYhfswkxoUZ9gJiySp4xtTHQGG5gJJ05lPyGjAn3oNAXlLqnakMAL0YFSn05KkzxtE+KUvRYmX3NmJsgdVdeHieob+vbamke95yPJv9BpcQ+kfZhVstTtq9KbiX52QwYndv3YRFPaR158S9T0YKmZGKMQOk0kDBGpAFuWGp0ikdIMdulggrwHLJEgRSUW0k9Wr/xs2i2pfHbZ2g9SovSna0652kVqZyGrdnaiB5o59vesD0wz2cBMbPKrW5tTNhNuNMKV4h/L0Ae22cBMWLRp0AmUWLr72t4WJD4jRKpqFTMhilg7UKmjLUUJZ5KbfO0ObA2xCDPNhK6PLbGX+bwVLjozkfTG2JEJ2didiOSoY5mJV9Fkx+7NhL0EVy92VjDmXuO2MROFY+U6LqPWcWiNiRQlUBIAyb9c7UlYBYrr4wuqqk7HTDOhO9y2om+yzTCpjI1in9Qom4m0o6TV9uyECpiqPv3q5qXUtvlLi6n9QjJzoLtiTDPrfZv/isKBmAnH6ZoJuz0qYtpMx0ZmIuBHwst33qJwnVpXXEJKKZnTYLUxlcPOFtgPqsJl8Q5VqliBntkJuvrYBNqvRP2TUND4xBYIJSsgnabaGB2SVXKsmfAnN41Whzj8H4X2Mx0GN9kR/0/ZE3XJr4rWSLYwE+VLdvt6La2IFCVQym2Vy7poqmp7VNCgugwmqJ2X7sBEtpedR8d4MyFdHbrx9TPz1TZfPpfltsAsMzGmmZW+lROkj9UFYSYcG5mJTOkt88xE8ShfYry9WGiNSrbjGDYThk44LbFYiox1JmCchhXMhFRDS3KelR8AsNvVsYX6S5VCDWWwJDEuES3tt9TMRKiPrUBWz1qJhf4ZaSaiU5Ax20zMZ8xfc0g1xliTg5BdnRXV6+M41jcTNbVoq4jsLbcxP7CQle2iEXqgsPoRZRL1ZKM+jnZzDNUEtmNNzra4qOdbZ3kkhbOZy6TaYtO/fGP+tfW0FX722uwt/x4KVH486S/HJuu7YkQzy9Iu2VZ7LMlWEo83E4Nn07LCCdqelcyEE3KvzfJ5NTMhgxzqfRIByS17z8T4wYZKtqMomgmzMVWmysiEQfYGnYu9RYWS3IqmhmwlgcknlkOpqirLUlRu2RiOdUepCsd/zeHLqtupqpmQnD9++OjjbG/UloiKSxhhJurVsBzBTJia2/dMhDkO8RbpsIQ4uew8HoemXVh6gavogWGemWgdJaJS0fumeMuBXQ/kouIPt+Pe4yvsDgnpneDpfo4l0KaP/ppDer6lu3V9Ehvx7PppuldO9KCktSidzaS7pNqh1a7E0GonwFP6sKz6Llu/XRr7qe6K4WZWso1+P+GMh9+MbmZoSPa/Roou/lcaOpsGW6tFZ+cgrGUmzIVRhgokLtx7I4KZENlOIwxjDJuJ4Bt8qMTRdhN6nmUEtWzrONVPQqmsWIQQkRhkt/KpgQgSEqITuSjPbG/wCn5jTVCjjRWJlayU5xDBDpH7hqjCIbe0FRKFIZCyEUm711em0ChlJnQPdNF1dWFvl1XWD4cwEwbxEz5KExyhznWvdijkyli7vlcuu4MEFYki1vJmuRUGs00TdJfvppkwBLGXKNXKJ5hUYZEHF6boXGmi2uZK0zkYG91ZEFlKIxYwf2BJ1VSVCgdWGOr2TlyT7aG40Gkun8ZZyKh62f582cxtskiG282s/qp1Q8whSel9z9uNNpOQbVqcRPJTKZ/NnpJR2yHrmQnYJyKZxTv+s8epcmSbnF9JR2V2xl4qaa9xVbtgL3CT5POMEcGYIoSwAuI/5tjZE0Osxu6HJQyYiTNHBPX497hHQQZ1krbL2Mm+zYRUu/6ox8Fo3Q+dzAXuAMhd6QncOJ4ft6HnZUTkNNqImThrSs8W3B7ykQnR6f12iJ/gOMBUC6zCnAkOWBE3QXC+/S8/sFHzTTvgDM1E8RGNEDOfuDw5wrz77XUSjq4fQtzSQRqAM0U/oHBmNOcZ9wcjEwAAALAIzAQAAAAsAjMBAAAAi8BMAAAAwCIwEwAAALAIzAQAAAAsAjMBAAAAizigmXjzwr7pYeyqnnAI3EucDvqybb8Ax37e9+AXSLvlL+QAAFjC/s1EuhLYSmyUbYsdvtn6NpiJoW7HTAAALGX/0xxN1XcGJcSUVUPnmInsZczTdGh1M+Hqo+LICzpkr5vchULv0MPN5c1Ft9zoRw+uWFcKAHbDCZsJWay8fz22fB3vJ+abiX6ZKH+TfVQzodZxcFp+xAVC0wa6RcyPvarWmZiJ91/eMR7i0v++by7xEwCwI1YyE+9u7sRCbhfI6GY09PjB8+/ctoAVdXOgswISL25kh9oSRXAAP159luQ2yh8MZdvAjkPcvX7+KCiTUSn5qsxEsBcSnYDJSpWF0Aqn00QDDEEL/SiIjWAgEjNhELsTDrdabj+rAYy+RLUxMUNSULLWlLRL2RRd2z7PXLZlS8hfd062llWjmQ6XlYuCYXLGxYW3L4PdrsoqDuqUz6bB5mwapaoUtXoLrHu4/6WaInx3db/3Fo7o7AMAHJCDmAlPLv8G6wCsnPvtkiY6sGYRspRZHZrMGJlwZuJ7c8kWMTOK4sXPaVsknKUre9DLDBHCTiCTfDrFCglEI0UvbREN1e/01Ytr1SXEZsKVWK95bCykmX5XqYF9bTsK1W4206BLSSpgkL2qFa8e6haVahUTXJfG1adyNqVu7Y5dGTvBcedaVfHVY5nseOyct+BrpXsGAOAw7MNMqJQycuAHJ4S66kuhPrH7nGbeYL6ZsNpjlMP8a7WkMxP2Uh5fx1MdraiaSFEkt5E4Japm6MS4oMruZtrlFnsUQ6ECJTORqXVUw6zQvuGlBkonxJUsVLvZzLySUUHFJihKtYopmIn22UwbNVyERw7MIzr7JWSO4yK08e31A2sjrJ+IZjpsj2WuCADgAOzCTGhRn2AmLJKnjG1MdAYzzIRVAhEtI6737n7cfRbVEeVOJC1RzbLkpMpt0Snlc1khSqqsNK9UpZSKEkc5R2ls/nFte6tRamBkjBylareaWchWyX+p0IjBBAUzMXA2004YLmIhvZlQsxuZmQAAOBanbCbcaIQrxT+WoQ9ss8RMiHh4XQlSmguSkx+lMWXJKcm5pNRiWVbZgipLbsvNRKrWXSku/zyqZkLMTVzJqWZCujEPn7iYm6ZUq5iymUgro87mscxEPNmBmQCA3XC6ZsJuj4qYNtOxyEwohsyE0rmy5FTNhE85oLKJjmoDoT/XqJmJXi/D0Isn1VFNoYGSf5K+KP+NZpb7LdDeaxhMMMFM+GrPNhP2QOWHQjjz18L/UWg302Hwkx3+GwDAMdnITGRKb5lnJopHFa1DsdAalWwblHW3G+TPVTbbUpIolUNHtKWhspkqy4Gdqi0yE1Kuydwm0KXnte3JNdXWsKXKPY1mVvotMNjM9uGGQoL22Uz3jjYT8xnz1xxSjaTaAACHYCUz4YTca7N8Xs1MyCCHep9EQHLL3jMxfrChkm2diu520pjIoehoLDCSQ0GJYzlM8mmobKzKzkmoGg6qrKFuJmTXvUeX99IKS7ZFxUo0VXqgkHKymUhMUorbq46N/5qj2u0dJbfRPJtHMBNupqOb45D3TCTDEv4HsHlNAAAy1jIT5pItQwUSF+69EcFMiGynEYYxhs1E8A0+VOJouwk9zzKCWrYVhsyEQUTFXdALemkRJQ6hLvq17U2VdWrdR0n1K2bCymF0rI1EhDJ30uHkuQ9fvaj5JuIeSPdKdJLcaKaj3dhob8WuhQjNTFshoepcP5vHMBMG994qH6UJDt/MVjcCAGzBemYCAI6MeMSiiwUA2BLMBMCZ4IZSKmNRAAAbgpkAOH38BMf2Uy0AACXO0EwUH9EIMeWJSwAAABgBIxMAAACwCMwEAAAALAIzAQAAAIvATAAAAMAiMBMAAACwCMwEAAAALOKAZsKtEj52Ia6Txf3F/4pvIdSvgm4sMAEAAHAk9m8m0sU7VmKjbDcwEx5ZKeMUzMSBFqoAAIDdsP9pjqbqO4MSYspCX7PNRLc2o43i4pnbMNlMROtUhTjAu5aLZiJedbOjuGJWMeWRuv3V4+qqWgAAEDhhMyHri6ZLkI/2E/PMRLqQkhG/Qy2FMHtk4tBDGkUzUdzo+lN1oK3q3evn8UbDUbr9zYWxEZdvSot9AwBAxEpmQtYf10Ju32ndzWjo8YPn37ltASvq5kBnBST8+uNqSxTBAcgC4lFuo/zBULYtRBHr6zu3Hm7wqik5uDSxshaWw04KqnoClWfxlr14YLM+tjK29H5dbyXkdqOexOlXZhfJL4TNWQoaMhO6XFXhgW7fhHdX939xIRVrmAnpnwNXDABgjxzETHhy+TdYB2Dl3G+XNNGBNYuQpczq0GTOyIST3qF74qp4W2X12yVNJ8mix8EHyK6C7pbNRDR9EOXTMbM+aq8kDjnUzYSn7Bus08p1NzIT9kCXs03c5zCu27eibiZ8Hx5uzgUAYK/sw0yolDJy4AcnhLrqS6E+sfucZt5gjpnoNbgg9h118VYarBU3VV8Z4ci0s5TtKCGfXB9vJtQheu9yM9EPPNhjO4dh6+mFOc1zTLeX0GNFKib5EkYmAAAG2YWZ0KI+wUxYJE8Z25joDOaZCYuIZUOWquKtb2FTedYyWb6JL2RbkO3CsZPrk/uD1ArMMBO9b3DOQBJoM6E/Vxvb6Pat4JkJAIBBTtlMuNEIV4p/LEMf2Ga+mQiE2+VUp2eKd9grh2u19hSyFReSx27NhCQzWV0+N1Wyn+1GnzI5Sr4mDXHUun0rMBMAAIOcrpmw26Mips10LDcTltJA93TxtlLdWYGikzAUsi3Ldso+zISUaJKZw82/No2pks3WpZRK6k6Q0DXUlLq9RNKxIaKmDYGZAAAYZCMzkSm9ZZ6ZKB5VtA7FQmtUsp3IGmaimD6nlExpfJ0VzIQ2EImZkANjeS7XypX4/JErxY1JdGYity+u2mVfNdpMrEHDTLi21xwPAMDtYSUz4YTca7N8Xs1MyCCHep9EQHLL3jMxfrChkm2Lby9jARMJzHR6sngn8lyhmK1s7ExAmcVmQu7vu6+S0veDU9PUTJS7RUr8WAYkLLZW9qs0PCo90BU0rtu3om4mXOcP9j8AwPmzlpkwl3gZKpC4cO+NCGZCZDuNMIwxbCaCb/ChEkfbTeh5lhHUsm3Q6YcPLaJyu5xGSNAUb9lbObCdrSVNEFS2U3odo+rj1LqPdAygL9FaAZuVro8lml9w2fqu6wr11bM5FO2Or4akb3X7RoiHyOIy/oX5Zqb9AwBw21jPTMBMxEnEIxOi1seTqGRkAqoUzh0AwC0EM3Fs+vvvnm6E/zhgJsbhBlfoKAAAzMTRye5u3SzDEe93MROD+AkOnpYAALCcoZkoPqIRYtoTl4dC/ISKZKDi0GAmAABgCoxMAAAAwCIwEwAAALAIzAQAAAAsAjMBAAAAi8BMAAAAwCIwEwAAALAIzAQAAAAs4oBm4s0L+6aHsat6wtHxK2LwwgkAAGizfzORrgS2Ehtl2yJaTOsEwEwAAMAo9j/N0VR9Z1BCTFk1dIGZcK+7DjFeaw9rJtK3at7m9aj8EqDJmp8AALASJ2wmZLHy/vXY8nW8n5hpJtzaTvp1199ejvUHhzcTqp5umOH2LZb96rGxERev3lxgJgAANmMlM/Hu5k4s5HaBjG5GQ48fPP/ObQtYUTcHOisg8eJGdqgtUQQH8OPVZ0luo/zBULZNZEyiuHBGaQFJ0W87HpANEvgIxsKuGmVlXlYej3c5orEQtctujw/shx8SM2GQavgEUrfLb3TOmfNwEfsPWeAqGYyR0lWt/CJYEqaIjsFmrs77L+989Fh+Tg0z4Rq7cU0AAM6ag5gJTy7/BusArJz77ZImOrBmEbKUWR2azBmZEMdQu7kXqdbamTmP6shEp77+8M6FWBKbIkoc6hCsQChF1yE3E7r+nV0IWZVcQif/iqyZcUFxF8WJm83cmLqZCH04froKAAAS9mEmVEoZOfCDE0Jd9aVQn9h9TjNvMMNMDIhfcoOeW4e2majYjtwTKIV2Qqik3dbB1zA/0GXrVDO/HS+kL5mJ4jhE5B6iTPTeVjNbuGpnkVasCSMTAAAbsgszoUV9gpmwSJ4ytjHRGaxvJpxYhhtcSRzdwQ+YifKdcWlX7xjETOi9bTOhchtqi8OmzzQ7LlSVWEqvEzeauTk8MwEAsCGnbCbcaIQrxT+WoQ9ss4GZ0AbCimgqw3PNRJpPPzYw0UykIxPzzETkk2wpXQUqQwghAWYCAOBMOV0zYbdHRUyb6ZhhJpyK5+La09kF+yGT6jXNhMt8opnoXcgiM6EaYhOoFlXSexrNbFLxKK0TkYGZAADYkI3MRKb0lnlmonhU0ToUC61RybaNyGE6dxDh7tStVBeS1bS2pbK5J1BbJpkJSRxGFBaZidBMKU5P5WT1iZhrJtagZSbEYx2rYgAA58BKZsIJuddm+byamZBBDvU+iYDklr1nYvxgQyXbAZzwaJFO3jPhEpRHICI5VzRVVu7Le0WX/EPm482EK7qv1UIzIQVdPnyU7ZXqlQ/Zq5mwHWVP2WBvAABAhbXMhJErGSqQuHDvjQhmQmQ7jTCMMWwmgm/woRJH203oeZYR1LIdQkSxi1Qd3d7cMTiiY4O0D6lsNM6vNW/ITPRHpfk3zYR3HnEkiV1DSjmksxJdmqFmboB4iCwu4jqECpf8HwAAjGA9MwGOI0gmLKM2YgQAAOPATKyMGhuA06A1NQMAACPATKxJ8nwD7Bw/wYH5AwBYxhmaieIjGiEmP3E5Erm75QYXAABuI4xMAAAAwCIwEwAAALAIzAQAAAAsAjMBAAAAi8BMAAAAwCIwEwAAALAIzAQAAAAs4oBm4s0L+6aHsat6wiFwr8eIVyVdQrZUKZwRb64//+TJ1+/9t5i3X3969fmz1/7bpthqXH3+6U3tTWM/fPXEJnBRT7YaQ/WZyutnB6l2hJw+32m1U3xEDvjrgtns30ykK4GtxDbZZitv7ZyGmZj1XnDMxBljRa52QX9/8/RgItQUb+ckXk5b8m8Zjfq07FeVY5iJwKwKN1nFB2AmToH9T3M0Vd8ZlBBTVg2dbSZkvU37ssuSDB/BTDTrs4CTMhN6ddAHV7u7sToHrF2oivQM/fPjByurpqjOsZQ4BzOBmbg9nLCZkMXK+9djy9fxfmKemZB1vZXE/nB9L7IOhzYTQ/VZwMmYifdf3jEe4tKf+JtL/MQWiPZfVy7nr19+cvX0q9FDjuJLnn71egPh35nqYCYwE7eHlczEu5s7sZDbBTK6GQ09fvD8O7ctYEXdHOisgMSLG9mhtkQRHMCPV58luY3yB0PZtmis4+XmC/KIpF1WJ/eRLnitBxiiIqTQh9/qBEHjB+pTsAK92OsK536o29VHnJsU7Xcp9+DzV3tNzbfFuof7Xyohe3d1v/cWDmksy6YsoGUXmj4jx2Tl5EoUYpJqWqkLU/tlaZmrOuJvQuahLRVl7cW+Wh+pRrerjzg3XajqB5+/2jtl1iYqOj2wUmJP1UzYH0DItnCubZ1DAl+o7hwdUUe1stV52sBM7JyDmAlPLv8G6wCsnPvtkiY6sGYRspRZHZrMGZlwGtm69a+PTMTCLyMKvZ+IviYWoRPmoNl94kZ9ZFcu5PbY3DoUc6iPTDhbo2v4MGqXCX+gpExt07rYCY4718omvHoskx2PnSUVfK0OPWRyRlQ1xjD7rnG6mfAUSkyFJ8QoGfYjJeFSYr66zGV7noMtKyq93gP1fnOzPLrQl+FzaIs/cIpXS7rUfFUHirqH5lQ6v1jhuH+kero+zhD0W14/03vrndPKNm/IvN8YHJB9mAmVUkYO/OCEUFd9KdQndp/TzBvMMRO9WNZuuKvabA+MxMyOUng9zoQ/0uDcMSiZr9fH5u82qtxs9eIb9BlmQtU8Q+qjjqp4mpyuIXEMGhGZ47gI9X97/cDaCOsnopkORiaWkcmnwkpCzWe0qejZMA1pmaU6Vcm3MunUVym6LSIepKkX2sw5zqRHZFUdVfE0JRrZZpUsZluqsK1PdJqiUoa8TrVzWtmm1Zh1WuHA7MJMaFGfYCYskqeMbUx0BvPMhMWpu4tUhmvanAtwn7Jw+66FXIprCWG5Pr1vcDotit6qRkrNTFRNhiX1TKPNxFx6M6FmNzIzAUtoilkmCeMRhdiDmZAGllTf5ubkTQTedUIu2PVCa2aiajIsaZdOMBNSk6KfKGRSch6FirXbO9jhtQStbLMf1WApsANO2Uy40QhXin8sQx/YZr6ZCISbae0DKtqs9V6HpKzclI82E4GkPvarzd8YiMvnX3wsOfTDFYHJZqI9c3EsMxFPdmAm1sTeelYl30rCOJ3LEYXYg5mw2IbI5IIJPWLvcjN7r7/+6omIX97keqEV09C+m19gJizO97joj7I16bd3MWwmvNPKwrc39wQJlc5pZouZOElO10zY7VER02Y6lpsJSzp+XtPm1tTAwIMFo82ERdXH67o53NTHbHefU3+wl5GJ4ISSqHdLwP9RaDfTYfCTHf4bLKOlFlOm83NEIfZiJgJedH2jvKoZ5TN5ml3uc+oP6oVWzER1u7DQTAS8PfIHjsykULG2XRjs8FqCVraYiZNkIzORKb1lnpkoHlW0DsVCa1SynUhqJjI19dQ129CU59lmwnqUu9ff9GMSHz//1mSVyHO9YjUf0KzPwUcmjG0d8dccUo3SeYEhWrK38BIvh+/NTBhUk92ozOt+TOLJ12+MKif+qV5oTcJl+1gpnWkmDFqw254gUDjdA11qa9s0lJkzcLSyTU2qrdXi0wpbs5KZcELutVk+r2YmZJBDvU8iILll75kYP9hQybbFt5exiIoSx/Iswwwl+cxsh6KQT09DvNv1kRI7m+Jv/VNBbbgcO5pSFGCXVd/G5K85Dmwm3ExHN8ch75lIhiXcSYnqDKNoCknLZ4xBMt+BmTDSpaU6UkcnY6GZsiuvc6NQK+HFNrqs+nKTv+aYZyZMSl0NqXx3oCj0UD7Fcyr5VI2IVE9XOP5rjnq5jWy12bKfnzydflrh0KxlJowsyVCBxIV7b0QwEyLbaYRhjGEzEXyDD5U42m5Cz7OMoJZtg06WfJRk2Mt2nsDdH/cRjUZER5noDmyYiXZ9kttx5y1CgrQ4iVRrowpHtY3KVe7hGGbC4N5b5aM0wSHGqN6NUKYpY5U7zkFEeq1CRzF80xwEOIm4enPMhCHKORPyfovzFiH/EfUJOfiIdNqprI9IjAt1GDABHa6GPsq2QEVQ/aiSIfJ+6CPJWTxTiLyqUUfps9PItq+qraTNATOxc9YzEwD7RcxTfS4JSli104oSYfVjrMIBwNmDmYDzxw2xlIaRoE5rll3uqqPRbAC41WAm4KzxExw8LQEAsCFnaCaKj2iEmPbEJQAAAAzCyAQAAAAsAjMBAAAAi8BMAAAAwCIwEwAAALAIzAQAAAAsAjMBAAAAi8BMAAAAwCIOaCbevLBvehi7qicA7Au7XEK23INn5qIYc3CrNlTf811d86JGuhbGbUQvmFI7xUfkgL8umM3+zUS6EthKbJNtYxHO/dFehau9MDrcPlqLLdkVmw4lQk0zUV2jss4iM9Fehatlv3bJ+hVexQdgJk6B/U9zNFXfGZQQU1YNnW0magtmCgc2E/5d0fX6NDkjM/Hmol819MHVCV28T4emas7QYz9+sPKQgKjOxDwxEz2YCZjNCZsJWay8fz22fB3vJ+aZiXTxSaPHkXU4gplQy2qLtxjvJ87ETLj1xy/9ib+5xE9sQXNlr9aSYAVEgJ9+9XqG8A8xR3UwEz2YCZjNSmbi3c2dWMjtAhndjIYeP3j+ndsWsKJuDnRWQOLFjexQW6IIDuDHq8+S3Eb5g6FsW4j6KvFWWOmNBwlcRMZCDyRcfuM3evSAR1REkHyVoNP4xEy4NCHnzCtYJyRWQyxRISSx+KFsV2wsojRpEabJUnS+dxOse7j/pRKyd1f3e2/hkLNTPnEwihVXEDVZObkShZik4lbqwtR+WVoWmAmxBS7z3hxkXqFzHvZDVxkVkliqke2KdTpKkxZhmlCszzDVbC0qz3LPV82E/QGEbAvnWveGL1SfLB3R2Wllm/YwZmLnHMRMeHL5N1gHYOXcb5c00YE1i5ClzOrQZM7IhNPI1sBDfWQiNiIi572fiL7GKXthDkMOKvFMM+HJEkTURiZcfbo2xjotdevbIvXZdnjDTnDcuVY24dVjmex47Cyp4Gs1aQ4INK0b1jn6LciBc4YECiU2pX0Ae+ynT7pnPsQbhcbWzYQnSxBR6zcn6l0TRHc7rxba4sU1qs8ASZear0qhpZRQ1UrnFysstY2rp4XfGYJ+y+tnem/hZHla2eYNwUzsnn2YCZVSRg784IRQV30p1Cd2n9PMG8wxE71Y1jS4aiZSIdc+IBP13BNEefYyH5sJSZl8Xd1MZA1xfeJrK5/VUe0iFHJgHqETqsgcx0XonLfXD6yNsH4imulgZGIZ9kJfu5RbSRgpdQkVPRumIS1zVEdkTDdB1NFlknkFm3ixmUgz8XXwUprWp11EhK15ZQAp65litqUKZ7WNShkal6qekVa2aTXmnFY4NLswE1rUJ5gJi+QpYxsTncE8M2Fx6u4i9Q01M5EOIeiUkXVwaCFPLEKEzTboblafTcyElJg0UKWcVsQK9GZCzW5kZgKW0BSzXBdHIwox59iGtMxRnawJqmKbmAllVjpUymlFREjNi36ikEnJeRQqnCfTnTzY4bUErWzLZ6RVCuyAUzYTbjTCleIfy9AHtplvJgLhZlr7gIqZ0P5Dh6Ss3JSPNRNql5QeD2lsYSbSysh9v8vnWGYinuzATKyJvfWMruwaKwnjdC5HFKKac4OGtMxRndwP9Vs2MxMlFff5LDATFnu4nXew0R8l+ecxbCak9OQoG76TS22JqJyRZrbZGcFMnAKnaybs9qiIaTMdy82ERXQ0lfPcTBQ1OFAYmdBMMBNx4oOaiaUjExVHNTjNEf4otJvpMPjJDv8NltFSi4mPXibs1kyoTA5qJpaPTGhsKUae/YEjMylUuG0XBju8lqCVLWbiJNnITGRKb5lnJopHFa1DsdAalWwnkpqJTE09NZMhlGU7MN1MePFOhdwmjuvWsjg1H5A3UG+ZbSbmM+avOaQapfMCQ5Tl0LHwEi+H79BMiO56nUs1WBQ6qnNTaysSnolltGUlM2HQdWt7gkDhdA90qa1t01DmjRVa2aYm1dZqyS8NDsJKZsIJuddm+byamZBBDvU+iYDklr1nYvxgQyXbFt9extIbTysIMsxQks/MdigK+fSIEI4zE0k+4h68g5HPqaA2yy2YDyGpj7Sra+8RzISb6ejmOOQ9E8mwhDsp5fMCLZpC0vIZY5DMCzIzSKNWA8pXJFa7pFbiHnyG8jk1E5K+qqZySN5G7VcMIpadXZhvJkxK3fY4W1HooXyK51TyaRsmXeH4rznq5Tay1f1jPz95Ov20wqFZy0wYZZKhAokL996IYCZEttMIwxjDZiL4Bh8qcbTdhJ5nGUEt2wadLPkoDTZYQS0mcPfHfUSjEdFRJroDh8xE+SiHKtHoqK18ag6iHFKtjSqsalvbfhwzYXDvrfJRmuDwzax0I1RoyljljnMQp75pDN80uxKzA+PqzTETTtX6SA53Yilhyio9QRJMRkgToQ6PdLq2fYmZMERtKdsCFUH1o8qEyOqg9iY5N3sgOXG6exvZ9lW1lbQ5YCZ2znpmAmC/iFerzyVBiZJwdlj9GKtwAHD2YCbg/HFDKaVhJKhj7UJtwCCd1QaAWw5mAs4aP8HB0xIAABtyhmai+IhGiGlPXAIAAMAgjEwAAADAIjATAAAAsAjMBAAAACwCMwEAAACLwEwAAADAIjATAAAAsIgDmgm3SvjYhbhOj/Z6XaNwi2X4OJF3P9sXOfCaagCAW83+zUS6eMdKrJ/tUjPRWHZLdu30BY6YCQCAW8/+pzmaqu8MSogpC33NNhPRWl96UauFZkJe+VxR5aqZSJcHs1FbBXQjdm8m3l4/CGuApUuTAwDAKpywmZD1RdMlyEf7iXlmIl0vyjiATuPXMBOVtz63zcSB3UPCvs2ErEj+4MqtRegWF8VPAACszUpmQtYf10Ju32ndzWjo8YPn37ltASvq5kBnBST8+uNqSxTBAcgC4lFuo/zBULYtWoMHnZlQzz0k8m8ThF25AyiaiegQFSHnlpmwGVpz049epOuPR6Msabt00emBqo0S8bF+OQwJXbdgO1TOGy+ZIe7hQp+FV497b+FxncDiHQAA8zmImfDk8m+wDsDKud8uaaIDaxYhS5nVocmckQnR++qzC0EjvbIm5sB87Q90YuyEVkuvDi3Ds0YmXG17pZeC0jr0Qynff3HZfY4HYHRtDUk+wSI4pNDua1y9rqV+i6j4grGcQWSC47HzpsK7q/t2suPOtfI+wRjVTisAAAyyDzOhUsrIgR+cEOqqL4X6xO5zmnmDOWbCq6ONwo2smIleVusOwCKJo0wS8xGxwEyoo2zibozBVqAi5HlNlEUQB6BLjMxEVIRF7xUzofe2mqxwDclCdXUFO8dx/8vw03pzYW3EG+snopkORiYAAJayCzOhRX2CmbBInjK2MdEZzDMTFq1tWuBTeW6aiYpgzzITcXRqnWWolT5T/Z7SgEFXgbwmqV2INV6nFzNR65At6M1EP7shgxM8NgEAsCqnbCbcaIQrxT+WoQ9sM99MBIKQh9v0ITORC/9KZqI1MlExE9UMDdnYg0HS22PzA5WBkBKTNtrw6Y9kJm6iyQ7MBADA+pyumbDboyKmzXQsNxMWPbXRNBOi+mpvbh0OaiaizwlVM2Er0DQThZEJzVwzUfEo9YIC/o9C+5kOg5vsGDoSAACmsJGZyJTeMs9MFI/yJcbbi4XWqGQ7kbFmItPRaWaiqv2zzURpLiPQrFtSE/fAQdD1qukRDj4yMe6vOdxJPGzFAADOi5XMhBNyr83yeTUzIYMc6n0SAckte8/E+MGGSrYtvr2M74ZFOzstb5mJPKW9tx5vJpxm53tnmwkv7erY7K85ul1S+e5AqbzPVpp8764aJJC9lTGDw5sJN9PRzXGIt8iGJaSxJirWCgAABlnLTBjJkaECiQv33ohgJkS20wjDGMNmIvgGHypxtN2EnmcZQS3bBk7U+9DS2DITBifeEkaYm3f/RYLmReVGG30EEzBgJgzO4vhIHECxOEffCTY3m0l0rJTbH9v3yTHMhEH8hI/iBEeocKPzAQCgxXpmAuBEiceNAABgKpgJuO20pmYAAGAEmAm4vfgJDp6WAABYxhmaieIjGiGmPXEJAAAAgzAyAQAAAIvATAAAAMAiMBMAAACwCMwEAAAALAIzAQAAAIvATAAAAMAiMBMAAACwiAOaiTcv7Jsexq7qCQAAAKfB/s1EuhLYSmyULQAAwK1j/9McTdV3BiXElFVDZ5kJtfKni2gRzrMiWh/1fJvZRJYsDyuOhnXMAQAg44TNhCxW3r8eW76O9xOzzYRaEcp5izNc2UHWH1ft+uH63uGXDj8yrx6rJcvfXd3HTwAAVFnJTLy7uRMLuV0go5vR0OMHz79z2wJW1M2BzgpIvHCXbLUliuAAfrz6LMltlD8YyrZJYibCSlFOaOXzw2/1PX3iM/TARrrgtei3j2wFS7dGtg9TREC2a5m3C2B2hYbayqqY2bGGSn2kIe1VNHVtdZ52u6mPX0Ar3WuY1Uw5yo6OqApvbG7EPVxqZ/rmovcWHpYbBQBwHMRMeHL5N1gHYOXcb5c00YE1i5ClzOrQZI2RCYPImzITVufCpIAIZxDpWKGjXYWv2oWIxPYTDeZrl3LYTIj0+vTicsLeRn1cQ6pqHddHBLUTfsmnUmK7mUmhsU6HbENBceU3QCY4LlQPvL1+YCc77n+pfpm+Vrd0DggAQLEPM6FSysiBH5wQ6qovhfrE7nOaeYN1zIRWtVyDlbRb4YlUR2eVeYKI3MF0jDATulCpodPjZn0y8dZERVh0VnJgahFCJq1mZvVxWXnnkWY70GMd0gN5jDjw8QcfPbh677/dXFobcWP9RDTTETseAIDbyy7MhBb1CWbCInnK2MZEZ7CGmYjVunW7nBxoiORQxLImcpKynPMIM1HOc6A+FueNXKjtuerL8INSfb03MhONZpaqmlgxNaSxPb2Z6Gc3ZHCCxyYAAAqcsplwoxGuFP9Yhj6wzWwz4fVVItLjhpnQwqxDyaf+64k8Ey/DEmq0YK6ZGFGfjlC003LvbLIYZSYMlWbm5sbf97tjj2QmXkWTHZgJAIAap2sm7PaoiGkzHbPNRNkuGBpmon1gRGMcwuDdTHXiYP7IRBPRdZc+tQsxg2YikDSzVJ8VRiZ8d6VR7hON/6PQfqbD4CY74p80AABYNjITmdJb5pmJ4lFF61AstEYl2zZNDW6ZiUz1W7QT6zqkKUV0x5iJSfWJzISe1MgZbSYMUR1yj6K3zDUT8xn11xzSuoa1AgC4LaxkJpyQe22Wz6uZCRnkUO+TCEhu2Xsmxg82VLJtMttMRHqc8ephJsB9SvNVq77k08mzVln5PNJMNOvz7WW8XVS/13LJtqKgqSeIzMRQM/XXejMPhbxnIsxxiLdIhyW6KZuKWwIAuDWsZSbM9VaGCiQu3HsjgpkQ2U4jDGMMm4ngG3yoxNF2E3qeZQS1bOssMBMGSeDkR6JT/XRXKk6irCHUURan9BLGN9h8xpkJQ70++skGG2kmqlCJrtVNMzHUzGhv1MxjmAmD+AkfxQkO6eH2SQcAuA2sZyYAbh3ichJ7BwBw+8BMAMzEDaU0xn4AAG4JmAmA6fgJDp6WAACwnKGZKD6iEWLiE5cAAAAwBCMTAAAAsAjMBAAAACwCMwEAAACLwEwAAADAIjATAAAAsAjMBAAAACwCMwEAAACLOKCZePPCvulh7KqeAAAAcBrs30ykK4GtxEbZ7o105S0AAIDV2f80R1P1nUEJMWXV0AVmIl4zc99LM7TMRLQY6eHX5NwHN5dhXdCPfnHnmtejAgDM4YTNhCxW3r8eW76O9xMzzYRb20nL87eXe16goWYm3CLjquavHt6+AYx3V/eNh3js17uXBcfxEwAAM1jJTLy7uRMLuV0go5vR0OMHz79z2wJW1M2BzgpIvHAXd7UliuAAfrz6LMltlD8YyraJjEm0bvT1atSSOIxbiHibu381qtHnY1eNuvfFOz1UkBgUWeo632Vziw8MFXCmJw9fqKxT1R5T0TnoJtuy4oYk+URFpwMeuiG25h1ylGmaczkSWy/tbd3Dg6v3/pvh7fWD3ls4pKNun80CAJjGQcyEJ5d/g3UAVs79dkkTHVizCFnKrA5N5oxMiOBFEqgZNhNaQbWc+yUoO+mVxF1Wkk+nZ+Ibgp8Iih72ilRH+l0ZmRjSyLyUuAL93qRP8q+91YgLlZS9EXFfVYK8LStjJzjuf6l+aW8uZLLjQnkj39itbQ0AwImzDzOhUsrIgR+cEOqqL4X6xO5zmnmDGWYi1viMEWZCDSpomc+kXZTVJ06z1Qc6M6EUt5U4IjM3mqjmlrQ++qg4cVaBDikxMgdRfybewlDPStM1JI7hA2WO4zL8ZN9/ecfaCOsnopmOIdcFAACGXZgJLeoTzIRF8pSxjYnO4BhmonasKJbWUUXuBpQqZ6o/2kwIUq4LnUZbB49N6Q1Es5lhgCFvqSRLaqILks8lZ7MVvZlQsxuZmQAAgBGcsplwoxGuFP9Yhj6wzYmYCcmkk/w+VjETHqmbyTMcaDPRZfkYZSYsyqP0QxF5sthAHMtMxJMdmAkAgDmcrpmw26Mips10zDATTmWrgreJmWi7gXXMhMWNKLis9IBBzrCZCEh3VX2PQRc010wEJ5RErasV/o9Cu5kOg5/s8N8AAGAkG5mJTOkt88xE8ShfYry9WGiNSrZtRPVr2pyorJbnBWZCDoweNVAMm4nm4YqotrY+8zxTikqc1yTaMtdMLGDMX3NI66onDgAAhJXMhBNyr83yeTUzIYMc6n0SAckte8/E+MGGSrYDuLtt7Se690xoOXTavIaZaDqYYTPhKpyKtKleXJwdwFAHSm0rgxNNM2EO1EdJtp2BiJuZuIcjmAk309HNcch7JpJhiew8AgBAgbXMhLkyy1CBxIV7b0QwEyLbaYRhjGEzEXyDD5U42m5Cz7OMoJbtECKKXaRa7rZbubVSqlR2rpkwuPvjPoLojjATwRn46ExJX9V4e0eSoPMETTNhEAMRIs026rrIrBzDTBjce6t8lCY4fHPKZg4AAIT1zATAOSKm6vAuBwDglMBMANRxY0IjHjoBALjNYCYAivgJjtb0EwAACGdoJoqPaISY/MQlAAAAtGFkAgAAABaBmQAAAIBFYCYAAABgEZgJAAAAWARmAgAAABaBmQAAAIBFYCYAAABgEQc0E29e2Dc9jF3V89zQS13wHiQAADgn9m8m0pXAVmKjbIfIluY6Sc6jFQAAsBL7n+Zoqr4zKCGmrBo6y0zE64WamLyY5BYy7NaPCHEIja+0wi3YrfvEjcfsdcnNNxdhvdDmwqEAADDACZsJWay8fz22fB3vJ2abCbWApPMWtYXFi6xtJkr6HS3tvQlNM6E6ZOfrd1szceea96sDACxlJTPx7uZOLOR2gYxuRkOPHzz/zm0LWFE3BzorIPHiRnaoLVEEB/Dj1WdJbqP8wVC2TRIzEeTTyaq9C9fGoqi4VTPhdVciX/Ba71VeQXJrSnUtW7tdHygNCTnbbG3i/jmP0C795IeOvgcun3/xcSjIdJf9qgqSCoejVH389rRp0Zb1GWEmxC/u1QwBAOyFg5gJTy7/BusArJz77ZImOrBmEbKUWR2arDEyYRCxWWwmRPL7da6/eZTl0+mZyLmXWHEAcX00sRBq3zPCTFi9DwmS6tVa4czENzYrm/h75yrcRtkftUsaoiof1dYcu7WTMAybCankxMEnAIDbxz7MhEopIwd+cEKoq74U6hO7z2nmDdYxE1rOrfDMMxMVbXak2fY+QBS3qnOyVzuAKP0IM6GOHdU0l8wcZfc+/Nb8K4f4jTmSSVYH25m6V4dwtiOLardo0mcmCg9MxIYMAACK7MJMaFGfYCYskqeMbUx0BmuYiVhp5psJd+tf9hOp6iuX0DQTmVQblGMYNhO6MuPMhK2Py9Okv/vxve5z2UzUmiZdkdT8ALy9fmD8BI9QAADM4JTNhBuNcKX4xzL0gW1mm4lw72sjunteYCYM+g5bZSvpVYkhxpmJpCB1x7+tmZCO8rnpY6WUqCGpaXDtrTVqW95d3f/FB/e/jH+0AAAwzOmaCbs9KmLaTMdsM1Edfl9mJgJOTftS8tv3HltirT6lgg42MqHpjnVOQh2VN81u+fDyofxbHMzI0SZMxSw7cnP5iw8+ejzajwIAgGcjM5EpvWWemSge5UuMtxcLrVHJts0UM5FppzBoJgxRGhHLmrLG8ywx+YF6SyLkTpJHm4mCDzAUN3bHShHNTGxKqUO56zZHHqG4VI7YIF0xz5oAANweVjITTsi9Nsvn1cyEDHKo90kEJLfsPRPjBxsq2TZpmgmRQL/XyeFYM/HqodZUnY+l5RicACeSHDyBHNiVFWerpd05iUlmIjYfnrKZkHJtSqlqqIATaZXe9VgotJj/psgcRzYsUT2PAACgWMtMmKuxDBVIXLj3RgQzIbKdRhjGGDYTwTf4UImj7Sb0PMsIatnWaZoJg5N2G1Z6rbgGEbKf/a4+erHsRCvZ7gnSGyKug5iGLiLZi3YVtN/tsopuU4YEw2bCELVIEg+YCeVaTJgtKr2rpy7CNznrihV5/+Ud/dccyZiExzczbxcAAHSsZyYAzpFoQAUAAEpgJgDquAGSsU+DAgDcUjATAEX8BAdPSwAADHKGZqL4iEaIiU9cAgAAwBCMTAAAAMAiMBMAAACwCMwEAAAALAIzAQAAAIvATAAAAMAiMBMAAACwiAOaCbdK+NiFuGAS+k3VvPsZAAAOyv7NRLp4x0pslO1ROPyyWAAAAD37n+Zoqr4zKCGmLPQ1y0ykC25JjHjXcryOl40136sotTqH0Yho5a10AU8AANgtJ2wmZH3RdAny0X5i0ciEWglzFGl6t0jmWis+ZIt8niSvHhsPcefanc7yguAAALBPVjITsv64FnL7TutuRkOPHzz/zm0LWFE3BzorIOHXH1dboggOQBYQj3Ib5Q+Gsh1F1UxEQxd9gjy9G6voHUB0YLRGpV210tgOlSD1DS0zoRcKT5e+dHXwkTmbfjn1Qwx7iHuIFgF/c9F7CwezOQAAO+UgZsKTy7/BOgAr5367pIkOrFmELGVWhyYbjEyIqPe6a74GhS6lF5n3Cb559PHzH+STIVnzOoi6P1yycnu1UdARCpLxj64+iX1R+fiv2o5IoX2Fv71MjcjKyATHharA2+sHdrLj/pfq/Ho7VbFNAABwNPZhJlRKGTnwgxNCXfWlUJ/YfU4zb7CBmbDiXRbdUnqxAspD9MSmJPEWhXGIfItF7uOj8QbZEkq02RZLt+THjsNN32QxLP92juPB1Xv/7ebS2ogb6yf0TAcjEwAAO2UXZkKL+gQzYZE8ZWxjojPYwEz4W+eCnyilj6Q9xvqMyEzoZCPNhGxMpid0NeRz1U/44ZAZfmIevZnoZzdkcILHJgAAToBTNhNuNMKV4h/L0Ae22cBMWPTUQ5+glD4amfDSrmIVM5FslFKU19EDCZlv0FVKTMn6ODPxKprswEwAAJwKp2sm7PaoiGkzHRuZiYDXaT0MEKdXIwdOtpXwrzYyUTIThWo3xyHc5MI4PzF7msP/UWg/02Fwkx3xTwgAAPbIRmYiU3rLPDNRPMqXGG8vFlqjku04hs2EQT1CkacX/XZ78/mONcxE4bmHfEtPWkpE68CVGPPXHN70DFsTAAA4LCuZCSfkXpvl82pmQgY51PskApJb9p6J8YMNlWxHUTQTZqPWOVE+nyZJ70Qxsgvd7IM4g3TvHDPhxwm67VKHbo7D+ANdf5lz6e1C9NclLv9RIxNLkPdMhDkO8RbpsESYQqqaHgAAOA5rmQlz/ZehAokL996IYCZEttMIwxjDZiL4Bh8qcbTdhJ5nGUEt2zpB6aNQt+zOJfhQmidCXt4lyK2/32s0fpWRCSGad0jcT9BmidQrxC0tZ7464id8lCY4QjcmDQEAgCOznpkA2BpncbadcAEAgMlgJuBkiOaDAABgN2Am4ATwExw8LQEAsEvO0EwUH9EIMfOJSwAAAKjByAQAAAAsAjMBAAAAi8BMAAAAwCIwEwAAALAIzAQAAAAsAjMBAAAAi8BMAAAAwCIOaCbevLBvehi7qifsG7fqB2+R2pAfvnry+SfXr/23hLdff3r1+bPKToA5yI/qk6uX09Y4ghPkzbU50Z9/erPm9Xv/ZiJdCWwlNsr21oCZ2Bp7ZX/6VeV/y/ubp588+fq9/7aM+b7k9bO1r0cLsZfItbrlFnJCZgIzvYwTNxMzaaq+MyghpqwaOstMDK0aWiNZgtzSWOpzHO4N01kObgHSketqhtVKT37prDcX3XKjHz24OgsxaepiQcXd1cFHbTyjyO7MhM02tKVqp4qcvpmQ4aik1a9fTjqn1mjarjuNAQb/u530izWcvJlwJzo7R87PTe2NfXDCZkIWK+9fjy1fx/uJRSMTBXPQZAszUfQNFYdRwdbh3hfXDye1ZXe8//KO8RCX/sTfXJ6Hn2jqtFUXrTfZhen1ywkavyszEV9MRWkm+InTNxMG56W6sylfJzTK/hg+vfnaHLV3rRWT9Oy1NPDWmYn0py5UHMaJsJKZeHdzJxZyu0BGN6Ohxw+ef+e2BayomwOdFZB4cSM71JYoggP48eqzJLdR/mAo21FUzUQ0dNEnGGEmvnnUH5gvjKn3qnwkk7vX3/uvLtnoYQZbKztPYY/S/kMW59TZxlvcBIeLUlnO0DQSrIt1D/e/VHLz7up+7y0cJ7fcqNxc1q4pcsXR1yB/UfbfioS7VRud/EeDGSoGr9E6Nx2RsXDXSh9jr4+ZG8gaWyQqS4XOalZ9shOR+qeoK7J6Frt9GDUUMdVOSTNtenugqo8717oO0RbdOSXj0m7mHGyJrmOnmQlX7Tz0j1anGd3txTMb/U6a2UorfEz6damTO+I/ssI5Dx99feRUJtXTBelWFMua1XuWg5gJTy7/BusArJz77ZImOrBmEbKUWR2abDAykUi7+RqkdMhMJCbgm0f6WYQ4W9HFPistk1LKeMm0AxsuW5tJpPrxmIe4B+0tBEmTeYWkDubrstGXQewEx51r1eZXj2Wy47GzpIK3YlkTdktTQeViEV0F5BrU+G8vV4dwgcuvNXmGY0mvvx1Oe7o8pQJjFDHL0Mnq6KuzLaiuhdPrkytKVMNEDMxX3Y0D3d5Ejv382fXAmc2xVXI9YLtO1zy+6638Zood2G7mYkSGpxqU6o9WcuuaIMnGZZ7+9qTVfQdGZ9N+Vb+f+OQmKZvo2soJKv16i0QViM5mnk/pelLpwFYzh9iHmVApZeTAD04IddWXQn1i9znNvMEGZsKKblnLB8xEZCxSrNJHzzlaaVS6GIxI7DmGsem1C0ma0/mbxOh0lM1EVtuReL1Po1BujMxxXISue3v9wNoI6yeimQ5tuU4A+/+8+n+4V4sepxMmSkdlV43kKlm7rIwgvf4G8u1y0Ry8psc18fW0F8qxV7SiFs6vT95XcVaV4oTBbh9AatgrzUjsL8FXr3Bau1ZXm19sUauZKzD2XERUfrR5J8uWMb+f6Mwa4qxKehzI+ifNqoX4ANOQ0fUsEhmINKtiX5U7sNXMQXZhJrSoTzATFslTxjYmOoMNzITIeVG0BsxEkNKSn7C7YouQqrhkfu+u2ThFxe1RXfqim+mnM7KWWhojEwf8K4/eTKjZjcxMnBbNa3f9OiVXJRf1a6KQyHPlujyCSmXC9VEzSpD6mqiL2nIzMbs+hd6Lmix7y/kMd/sQtoZTVdZ2YFdESRikKyTiugWK3dJo5hrYLp0sYA0tTOo59ued/piTM1g/Hfn/gkmS7Or81FSy8F9pNPGJy3+l2emudMucX13glM2EG41wpfjHMvSBbTYwExZ9h90nGDITBjez4ELZEW9QsohU3B9bG9sokVgB+Zo5ALmhr2VbNhOWoYcq1sSbiXiy47TNhL0QVK99VgzKMhCQa5O69PurQxpbm4lUNaUa7Zp3NYmznaLB8SU1MLs+hQtx1uRenqNL8HC3t1HZjj81SW3la7Hh1TzLHWioNHMNbJdOzrNhJpKsJOUInU7PbK7BssV3Qp9S8u+29zG+RT6H4V9jRF6uOnHqPNo+KTS/3IGWcjNHcLpmwm6Pipg207GRmQh4QfVpRpiJgHcPnZ/IRyYKDNcnoexRojEVyfPeo0v7b2mCoG4mAs6LjPMTc6c5wh+FdjMdBj/Z4b+dGPklTDH2jsddDtyVopmhUL+sDDHRTBRVKkJ0Ja7McP0V5VLm1ycvvdJkl6GpfDg7k6qd4frh5ZtpMhN8ZBy6tlKrp8+u7b9FWzPYLUkz10AaOzXD8o+2aiZG/LzTM1s/g76fQ+LqT2I0Y/9f97gfhjokPXHdb96mLJ3r4W5JmjnMRmYiU3rLPDNRPKpoHYqF1qhkO45R4q0eoXDCHEly/QGL2GcMa7ZhqpkopJdCe9fSfxWZL0xbjKrY3EcoJjDmrzmkvVMeKDkazcvK2Muiuw6GlCUpjZl9NazVNs9wbBGZmE27zlYEYH590gzlBr12YFT54W6v4gTbnT53Kkf1QOHnIb3XVUkSSOVt84umIev/AqU0XnjG/DgzpDKjT3GgfAbzH0DlJ5GTZOhaVDtQ/yyn/URLTM5BGhX9uor/cUxzbMriCR11MZlWsZXMhBNyr83yeTUzIYMc6n0SAckte8/E+MGGSrajKIq32ahHGuS+vEsjktxLb/z11UOtc5K58hkyyNEWwmJ96hR9gGz0wh8biHIFapnoaiSt3gaZ6ejmOOQ9E8mwhFTV1GSK3zoOTQWqXejN9SK+KCRSIVeE1vV0MEEVkb1ChZOLnSQbl38veJYJBzoqYj+/PpKh7175rPI3/aYzSURxbq+6UtJ8qr+KDmljWpxqePyrqHRU6TfWbqZDNur8J1DMcJBa98a5xT+nJpKhr7/LXOf/+pluWpJtpTNHI8VN6oGoxFDbuPPtqX/y8tmTimMom4lmM4dYy0yEoQKJC/feiGAmRLbTCMMYw2Yi+AYfKnG03YSeZxlBLds6xdkBJZZ+YN9Fekcuyhoi0WZ36xwi07y03HRIY5qZiEY+eoKJ8dKbGSNf56iNIVTiVjO3wr23ykdpgsPPOlWGgnZD6VLeYa+Stf/Yoo595MmSBFUxkBi6X9F0l10bulyRsbCr2qgScgkLx04W41q5s+ujDjSVse1VzYz6bXq3Z/i2x60ubkypCJLXg//HnSZ9Zl3dXJ2jzgkxvpkGn8OEjo3y7GLKb6/2o539Y+4PtG20gq36PPpZZtnGe8eYP8V0MxGfMlOZwqWj/LMpdvvoZjZZz0wA7Jd4rGWn2P/n1f+9yaUNYFc4EZqoiHBOYCbg/HEDP/lgzK6QW42aXZhz7wJwKNwAFWb3VoOZgLPGT3Ds/mkJgNNk+gQHnCdnaCaKj2iEmPnE5akRPbiQxt5H+wEA4MRgZAIAAAAWgZkAAACARWAmAAAAYBG9mXDfAQAAACaBmQAAAIBFYCYAAABgEZgJAAAAWERiJl794U9/9hMTv9n3ywJhPaK1NqJFuQqLdMBtpvD+/w55m/KkN/lPx75uvLgwBAAcneLIhFiKvfgJ+/6lA60XNQ6rvufy3idxErXlrzAToGktHWJfg7j5OxCXmYlD2B2A20t5muPtb+/95O6fTVj2bBD/VmMXk95tjJmwROMHq5UuL8rceolwOAuaS4dMlXm3lIOL8esrYiYA9kvdTPz0P/6N/7aUbJmlbx5NkEPMhHs3tnJg754/WqdDdte3sFeaK43ZFU2neYI+K3vsSI3HTADsl+lmQsYYpijQiNtfPW4RUjoLkkdXdCrq757f7SyL/WxH7/sb+inyHxXd1Vzy77d3EeXshN9FNgBTaqbFbo9rq46Vja2xHHVUdF5sK2zd+iplZ61mJvwEh0RpEiQaZ3IR1VCqVJs9gROkZRemrWiaPXghh4+aIvFmwq8sZSOMlIgjSXyGLUgSyIdCaGOh8sz9irgfH+M9E8DtYrKZ8NI1QZtFzOrpRbk74cmdR03wpCY629RMSD19Vnm2VeL62K/JQwNpuR1SaOR1lMS2mtlps98iWu6LaNdc9naVca0OiaVEJepSirRFewUdmfwHlxPR52OIK+CRjZWzBqfIeo9eFpxHcwJFI2biSfdwhnYhuSOJxz8M9Xp2tsMiyZSfSPJ5/WyU7wG4dZTNxD/99/+43shEp2rFo6zwRNtTAcsSBIbNhNJgqUPr/r6j6hUCtQTZdl3zZjOzLu1rGyl3St4o2eKzdd2ujs17stq3nvRcWJJm6hI7bJpsI5wsVlBrdmHqo5e5LxEzMeaOX3RdH6umSNJM8qGUmpnItkfmZppVAri9VMzEP/zZH/z0Z3/w23/wX1fA6pazFJHi5nKlPYGlKnipeGdmItLgki4WcRpctAuOipnI6ykDAM7QtJvZcAyNXdEARkBlm1mNVcxEWmhWCpwbzZEDGS2Y9BxDMiUhaj3eTERl6VEE/bk4lFKxBYXWRUZEHAx+AmCIipkQ/uY39p0Tq1qKINVBosLXNJR8HtpMWETCfWRTDGUzISX2R3Uhhw80c4mZSKon1XDdtY2ZSKpkc8i7CM4IO4NQtQtWd8fMUMSIn/Dx5Os3LbOiyY1LtEUZCLs9lf+KmZA5jjy0uZE5lMJ2AOhpjUz84X/331bG6W7tlj3lGGYiYIvIxHL0yISiXXokzzG6r1KqZsJltZGZSI0RTuK8yecLegoPQMygMIpQpjwy0fuDrqpFizN+ZKKG5ICfACgy+QFML28FNR2NFshc9VNKkikkou5ErmYmKg5gmPzATKQd1Xpa2s1smAmXbWUeIa+J3pLtXcVMDB0iuHMxmAz2T0vpK/I8kdIoQpnUTKTPSYRBFFvngsXJvIij5ZYy1mkywBky2Uw4naiLX4bR0Vhi5Xa/l6jka04tgdTEb09rlYh3S60TjHinApxaBMmtoJS17UKrme3qSVsiW9C/ZyKunqTsKrCNmWh6Jo8zQHGd4RRpaufoEYU6Mt9REPgysRuQuiXHir2oDR642Yp8EKK2XXj9UheR2RcA8EwfmXAC1hahBBHLPrIRgs4KVBJ04mRDlysK3R1iK6bNRHdI26xk+Aa6KDYzqrCubbPcajPbZsIS9UDcP1FtdSbzzUTaComu0MLerHv9GZ/U7bA7mlMAlRv9QfxkgYtx8wuB5PmGgstxmVctjq1z8fAkZz2wEQyKi2kVBrg9zDATw2MJx0cEb9xQBEzBOYloZMIZnWQQQixOZHrg5PCzBv5bQvG5hKNTGq4AgAMw95mJgYHuY4OZ2IjSIIqYy8hMuDEY+v+0aT1MsM6jl6vTHEoBgA0pmonaqqF+RP0ERAIzsRG5lXQzGt0WP8HB0xJwcOQJDJ6OBDgKiZkQG2Fi3SVDDw9mYjucn1BBP8Nx6R5rwEkAHIvyNAcAAADASDATAAAAsAjMBAAAACwCMwEAAACLwEwAAADAIjATAAAAsAjMBAAAACwCMwEAAACLwEwAAADAIjATAAAAsAjMBAAAACwCMwEAAACLwEwAAADAIjATAAAAsAjMBAAAACwCMwEAAAAL+Kd/+v8BaBEre7YVYvEAAAAASUVORK5CYII=;" parent="1" vertex="1">
          <mxGeometry x="960" y="60" width="708" height="656" as="geometry" />
        </mxCell>
        <mxCell id="ZoJ969MxdWa3RZIquQ7d-51" value="MAIN" style="swimlane;whiteSpace=wrap;html=1;" parent="1" vertex="1">
          <mxGeometry x="-560" y="1210" width="670" height="490" as="geometry" />
        </mxCell>
        <mxCell id="ZoJ969MxdWa3RZIquQ7d-79" value="UDP" style="swimlane;whiteSpace=wrap;html=1;fontFamily=Helvetica;fontSize=11;fontColor=default;labelBackgroundColor=default;" parent="ZoJ969MxdWa3RZIquQ7d-51" vertex="1">
          <mxGeometry x="80" y="70" width="300" height="70" as="geometry" />
        </mxCell>
        <mxCell id="ZoJ969MxdWa3RZIquQ7d-81" value="OTA" style="swimlane;whiteSpace=wrap;html=1;fontFamily=Helvetica;fontSize=11;fontColor=default;labelBackgroundColor=default;" parent="ZoJ969MxdWa3RZIquQ7d-51" vertex="1">
          <mxGeometry x="80" y="170" width="300" height="70" as="geometry" />
        </mxCell>
        <mxCell id="ZoJ969MxdWa3RZIquQ7d-82" value="DEBUG" style="swimlane;whiteSpace=wrap;html=1;fontFamily=Helvetica;fontSize=11;fontColor=default;labelBackgroundColor=default;" parent="ZoJ969MxdWa3RZIquQ7d-51" vertex="1">
          <mxGeometry x="80" y="280" width="300" height="70" as="geometry" />
        </mxCell>
        <mxCell id="ZoJ969MxdWa3RZIquQ7d-52" value="GPS" style="swimlane;whiteSpace=wrap;html=1;" parent="1" vertex="1">
          <mxGeometry x="540" y="1360" width="270" height="260" as="geometry" />
        </mxCell>
        <mxCell id="ZoJ969MxdWa3RZIquQ7d-71" value="RECIEVER" style="swimlane;whiteSpace=wrap;html=1;fontFamily=Helvetica;fontSize=11;fontColor=default;labelBackgroundColor=default;" parent="ZoJ969MxdWa3RZIquQ7d-52" vertex="1">
          <mxGeometry x="35" y="40" width="135" height="70" as="geometry" />
        </mxCell>
        <mxCell id="ZoJ969MxdWa3RZIquQ7d-72" value="BNO" style="swimlane;whiteSpace=wrap;html=1;fontFamily=Helvetica;fontSize=11;fontColor=default;labelBackgroundColor=default;" parent="ZoJ969MxdWa3RZIquQ7d-52" vertex="1">
          <mxGeometry x="35" y="150" width="135" height="70" as="geometry" />
        </mxCell>
        <mxCell id="ZoJ969MxdWa3RZIquQ7d-53" value="STEER" style="swimlane;whiteSpace=wrap;html=1;" parent="1" vertex="1">
          <mxGeometry x="950" y="1280" width="310" height="330" as="geometry" />
        </mxCell>
        <mxCell id="ZoJ969MxdWa3RZIquQ7d-73" value="WAS" style="swimlane;whiteSpace=wrap;html=1;fontFamily=Helvetica;fontSize=11;fontColor=default;labelBackgroundColor=default;" parent="ZoJ969MxdWa3RZIquQ7d-53" vertex="1">
          <mxGeometry x="30" y="55" width="160" height="85" as="geometry" />
        </mxCell>
        <mxCell id="ZoJ969MxdWa3RZIquQ7d-74" value="MOTOR CTRL" style="swimlane;whiteSpace=wrap;html=1;fontFamily=Helvetica;fontSize=11;fontColor=default;labelBackgroundColor=default;" parent="ZoJ969MxdWa3RZIquQ7d-53" vertex="1">
          <mxGeometry x="30" y="180" width="160" height="85" as="geometry" />
        </mxCell>
        <mxCell id="ZoJ969MxdWa3RZIquQ7d-55" style="edgeStyle=orthogonalEdgeStyle;rounded=0;orthogonalLoop=1;jettySize=auto;html=1;entryX=0.5;entryY=0;entryDx=0;entryDy=0;curved=1;startArrow=classic;startFill=1;" parent="1" source="ZoJ969MxdWa3RZIquQ7d-5" target="ZoJ969MxdWa3RZIquQ7d-51" edge="1">
          <mxGeometry relative="1" as="geometry" />
        </mxCell>
        <mxCell id="ZoJ969MxdWa3RZIquQ7d-56" style="edgeStyle=orthogonalEdgeStyle;rounded=0;orthogonalLoop=1;jettySize=auto;html=1;entryX=0.5;entryY=0;entryDx=0;entryDy=0;startArrow=classic;startFill=1;curved=1;" parent="1" source="ZoJ969MxdWa3RZIquQ7d-5" target="ZoJ969MxdWa3RZIquQ7d-52" edge="1">
          <mxGeometry relative="1" as="geometry" />
        </mxCell>
        <mxCell id="ZoJ969MxdWa3RZIquQ7d-57" style="edgeStyle=orthogonalEdgeStyle;rounded=0;orthogonalLoop=1;jettySize=auto;html=1;entryX=0.5;entryY=0;entryDx=0;entryDy=0;curved=1;startArrow=classic;startFill=1;" parent="1" source="ZoJ969MxdWa3RZIquQ7d-5" target="ZoJ969MxdWa3RZIquQ7d-53" edge="1">
          <mxGeometry relative="1" as="geometry">
            <mxPoint x="870" y="1090" as="sourcePoint" />
          </mxGeometry>
        </mxCell>
        <mxCell id="ZoJ969MxdWa3RZIquQ7d-59" style="edgeStyle=orthogonalEdgeStyle;rounded=0;orthogonalLoop=1;jettySize=auto;html=1;entryX=0.5;entryY=0;entryDx=0;entryDy=0;curved=1;startArrow=classic;startFill=1;" parent="1" source="ZoJ969MxdWa3RZIquQ7d-5" target="ZoJ969MxdWa3RZIquQ7d-58" edge="1">
          <mxGeometry relative="1" as="geometry">
            <mxPoint x="870" y="958" as="sourcePoint" />
          </mxGeometry>
        </mxCell>
        <mxCell id="ZoJ969MxdWa3RZIquQ7d-58" value="LED" style="swimlane;whiteSpace=wrap;html=1;" parent="1" vertex="1">
          <mxGeometry x="1360" y="1160" width="200" height="200" as="geometry" />
        </mxCell>
        <mxCell id="ZoJ969MxdWa3RZIquQ7d-70" style="edgeStyle=orthogonalEdgeStyle;shape=connector;curved=1;rounded=0;orthogonalLoop=1;jettySize=auto;html=1;entryX=0.5;entryY=0;entryDx=0;entryDy=0;strokeColor=default;align=center;verticalAlign=middle;fontFamily=Helvetica;fontSize=11;fontColor=default;labelBackgroundColor=default;endArrow=classic;startArrow=classic;startFill=1;" parent="1" source="ZoJ969MxdWa3RZIquQ7d-5" target="ZoJ969MxdWa3RZIquQ7d-69" edge="1">
          <mxGeometry relative="1" as="geometry" />
        </mxCell>
        <mxCell id="ZoJ969MxdWa3RZIquQ7d-69" value="WIFI" style="swimlane;whiteSpace=wrap;html=1;" parent="1" vertex="1">
          <mxGeometry x="160" y="1310" width="340" height="510" as="geometry" />
        </mxCell>
        <mxCell id="ZoJ969MxdWa3RZIquQ7d-75" value="CONNECT" style="swimlane;whiteSpace=wrap;html=1;fontFamily=Helvetica;fontSize=11;fontColor=default;labelBackgroundColor=default;" parent="ZoJ969MxdWa3RZIquQ7d-69" vertex="1">
          <mxGeometry x="30" y="50" width="200" height="90" as="geometry" />
        </mxCell>
        <mxCell id="ZoJ969MxdWa3RZIquQ7d-76" value="MAKEAP" style="swimlane;whiteSpace=wrap;html=1;fontFamily=Helvetica;fontSize=11;fontColor=default;labelBackgroundColor=default;" parent="ZoJ969MxdWa3RZIquQ7d-69" vertex="1">
          <mxGeometry x="30" y="160" width="200" height="90" as="geometry" />
        </mxCell>
        <mxCell id="ZoJ969MxdWa3RZIquQ7d-77" value="TASK" style="swimlane;whiteSpace=wrap;html=1;fontFamily=Helvetica;fontSize=11;fontColor=default;labelBackgroundColor=default;" parent="ZoJ969MxdWa3RZIquQ7d-69" vertex="1">
          <mxGeometry x="30" y="270" width="260" height="160" as="geometry" />
        </mxCell>
        <mxCell id="ZoJ969MxdWa3RZIquQ7d-78" value="MONITOR" style="swimlane;whiteSpace=wrap;html=1;fontFamily=Helvetica;fontSize=11;fontColor=default;labelBackgroundColor=default;" parent="ZoJ969MxdWa3RZIquQ7d-77" vertex="1">
          <mxGeometry x="40" y="40" width="160" height="90" as="geometry" />
        </mxCell>
        <mxCell id="ZoJ969MxdWa3RZIquQ7d-159" style="edgeStyle=orthogonalEdgeStyle;shape=connector;curved=1;rounded=0;orthogonalLoop=1;jettySize=auto;html=1;exitX=1;exitY=0.5;exitDx=0;exitDy=0;exitPerimeter=0;strokeColor=default;align=center;verticalAlign=middle;fontFamily=Helvetica;fontSize=11;fontColor=default;labelBackgroundColor=default;endArrow=classic;startArrow=classic;startFill=1;" parent="1" source="ZoJ969MxdWa3RZIquQ7d-158" target="ZoJ969MxdWa3RZIquQ7d-5" edge="1">
          <mxGeometry relative="1" as="geometry" />
        </mxCell>
        <mxCell id="ZoJ969MxdWa3RZIquQ7d-158" value="config.json" style="strokeWidth=2;html=1;shape=mxgraph.flowchart.document2;whiteSpace=wrap;size=0.25;" parent="1" vertex="1">
          <mxGeometry x="-700" y="280" width="100" height="60" as="geometry" />
        </mxCell>
      </root>
    </mxGraphModel>
  </diagram>
  <diagram id="kFvBTZhO2gBsrZDYin37" name="Page-2">
    <mxGraphModel dx="1368" dy="615" grid="1" gridSize="10" guides="1" tooltips="1" connect="1" arrows="1" fold="1" page="1" pageScale="1" pageWidth="1100" pageHeight="850" math="0" shadow="0">
      <root>
        <mxCell id="0" />
        <mxCell id="1" parent="0" />
        <mxCell id="0HkSnXHiEO4sD19gQ0xm-14" value="STEER" style="swimlane;whiteSpace=wrap;html=1;" vertex="1" parent="1">
          <mxGeometry x="-30" y="10" width="1060" height="570" as="geometry" />
        </mxCell>
        <mxCell id="0HkSnXHiEO4sD19gQ0xm-15" value="WAS" style="swimlane;whiteSpace=wrap;html=1;" vertex="1" parent="0HkSnXHiEO4sD19gQ0xm-14">
          <mxGeometry x="80" y="170" width="320" height="270" as="geometry" />
        </mxCell>
        <mxCell id="0HkSnXHiEO4sD19gQ0xm-17" value="ADS1115" style="swimlane;whiteSpace=wrap;html=1;" vertex="1" parent="0HkSnXHiEO4sD19gQ0xm-15">
          <mxGeometry x="30" y="50" width="190" height="110" as="geometry" />
        </mxCell>
        <mxCell id="0HkSnXHiEO4sD19gQ0xm-16" value="MOTOR CTRL" style="swimlane;whiteSpace=wrap;html=1;" vertex="1" parent="0HkSnXHiEO4sD19gQ0xm-14">
          <mxGeometry x="590" y="170" width="340" height="360" as="geometry" />
        </mxCell>
        <mxCell id="0HkSnXHiEO4sD19gQ0xm-18" value="ESPMOTOR LIBRARY" style="swimlane;whiteSpace=wrap;html=1;" vertex="1" parent="0HkSnXHiEO4sD19gQ0xm-16">
          <mxGeometry x="30" y="45" width="200" height="200" as="geometry" />
        </mxCell>
        <mxCell id="0HkSnXHiEO4sD19gQ0xm-20" value="MCPWM" style="text;strokeColor=none;fillColor=none;align=left;verticalAlign=middle;spacingLeft=4;spacingRight=4;overflow=hidden;points=[[0,0.5],[1,0.5]];portConstraint=eastwest;rotatable=0;whiteSpace=wrap;html=1;" vertex="1" parent="0HkSnXHiEO4sD19gQ0xm-18">
          <mxGeometry x="20" y="35" width="80" height="30" as="geometry" />
        </mxCell>
      </root>
    </mxGraphModel>
  </diagram>
</mxfile>
